<svg width="430" height="428" viewBox="0 0 430 428" fill="none" xmlns="http://www.w3.org/2000/svg">
<path d="M16.977 70.848C11.921 70.848 7.953 69.568 5.073 67.008C2.257 64.384 0.848995 61.12 0.848995 57.216C0.848995 54.976 1.42499 53.056 2.57699 51.456C3.79299 49.856 5.585 49.056 7.953 49.056C9.80898 49.056 11.345 49.664 12.561 50.88C13.841 52.096 14.481 53.6 14.481 55.392C14.481 56.672 14.161 57.6 13.521 58.176C12.945 58.752 12.273 59.2 11.505 59.52C10.737 59.776 10.033 60.096 9.39297 60.48C8.81699 60.8 8.529 61.376 8.529 62.208C8.529 63.424 9.20098 64.448 10.545 65.28C11.953 66.112 13.841 66.528 16.209 66.528C20.049 66.528 22.737 65.184 24.273 62.496C25.873 59.744 26.673 55.68 26.673 50.304V8.448C26.673 6.52801 26.129 5.08801 25.041 4.12801C24.017 3.16801 22.129 2.688 19.377 2.688C18.417 2.688 17.937 2.27201 17.937 1.44001C17.937 0.480002 18.417 0 19.377 0C19.633 0 20.305 0.032002 21.393 0.096005C22.481 0.096005 23.729 0.128005 25.137 0.192004C26.609 0.192004 27.985 0.224003 29.265 0.288002C30.609 0.288002 31.665 0.288002 32.433 0.288002C33.201 0.288002 34.257 0.288002 35.601 0.288002C36.945 0.224003 38.353 0.192004 39.825 0.192004C41.297 0.128005 42.577 0.096005 43.665 0.096005C44.817 0.032002 45.521 0 45.777 0C46.609 0 47.025 0.480002 47.025 1.44001C47.025 1.69601 46.929 1.98401 46.737 2.30401C46.545 2.56001 46.225 2.688 45.777 2.688C43.025 2.688 41.073 3.16801 39.921 4.12801C38.833 5.02401 38.289 6.46401 38.289 8.448V49.824C38.289 54.752 37.361 58.784 35.505 61.92C33.713 64.992 31.217 67.264 28.017 68.736C24.817 70.144 21.137 70.848 16.977 70.848ZM77.1435 69.792C76.3115 69.792 75.8955 69.28 75.8955 68.256C75.8955 67.424 76.3115 67.008 77.1435 67.008C80.7275 67.008 83.1275 66.56 84.3435 65.664C85.6235 64.768 86.2635 63.264 86.2635 61.152V8.54401C86.2635 6.62401 85.6875 5.18401 84.5355 4.22401C83.3835 3.26401 81.0795 2.78401 77.6235 2.78401C76.7915 2.78401 76.3755 2.30401 76.3755 1.344C76.3755 0.512003 76.7915 0.096005 77.6235 0.096005C78.1355 0.096005 80.5675 0.128005 84.9195 0.192004C89.3355 0.256003 95.7995 0.288002 104.312 0.288002C112.376 0.288002 118.488 0.256003 122.648 0.192004C126.808 0.128005 129.176 0.096005 129.752 0.096005C131.224 0.096005 131.992 0.832006 132.056 2.30401C132.184 2.88001 132.28 3.84001 132.344 5.18401C132.408 6.46401 132.472 7.84 132.536 9.312C132.6 10.784 132.632 12.096 132.632 13.248C132.696 14.4 132.728 15.136 132.728 15.456C132.728 15.712 132.664 16 132.536 16.32C132.408 16.576 132.12 16.704 131.672 16.704C131.224 16.704 130.872 16.672 130.616 16.608C130.424 16.48 130.232 16.192 130.04 15.744C129.272 14.016 128.28 12.192 127.064 10.272C125.912 8.28801 124.344 6.59201 122.36 5.18401C120.44 3.77601 117.912 3.072 114.776 3.072H99.8959C99.3199 3.072 98.8395 3.20001 98.4555 3.45601C98.0715 3.71201 97.8795 4.25601 97.8795 5.08801V31.392C97.8795 31.648 98.0075 31.936 98.2635 32.256C98.5195 32.512 98.8075 32.64 99.1279 32.64H104.024C106.712 32.64 108.76 32.064 110.168 30.912C111.576 29.76 112.6 28.416 113.24 26.88C113.944 25.344 114.52 24.032 114.968 22.944C115.16 22.432 115.32 22.08 115.448 21.888C115.64 21.632 115.992 21.504 116.504 21.504C116.952 21.504 117.24 21.664 117.368 21.984C117.56 22.304 117.656 22.624 117.656 22.944C117.656 23.456 117.624 24.384 117.56 25.728C117.56 27.008 117.528 28.416 117.464 29.952C117.464 31.488 117.464 32.896 117.464 34.176C117.464 35.392 117.464 36.864 117.464 38.592C117.528 40.256 117.56 41.792 117.56 43.2C117.624 44.544 117.656 45.44 117.656 45.888C117.656 46.848 117.272 47.328 116.504 47.328C115.8 47.328 115.32 46.912 115.064 46.08C114.616 44.864 114.04 43.456 113.336 41.856C112.632 40.192 111.576 38.752 110.168 37.536C108.76 36.256 106.712 35.616 104.024 35.616H99.1279C98.2955 35.616 97.8795 36.096 97.8795 37.056V64.8C97.8795 66.016 98.5195 66.624 99.7999 66.624H112.76C115.832 66.624 118.424 66.08 120.536 64.992C122.648 63.84 124.376 62.432 125.72 60.768C127.128 59.04 128.216 57.344 128.984 55.68C129.752 53.952 130.328 52.512 130.712 51.36C130.904 50.784 131.096 50.464 131.288 50.4C131.544 50.336 131.896 50.336 132.344 50.4C132.408 50.4 132.44 50.4 132.44 50.4C132.952 50.464 133.24 50.624 133.304 50.88C133.368 51.136 133.4 51.424 133.4 51.744C133.4 52 133.368 52.8 133.304 54.144C133.304 55.488 133.272 57.056 133.208 58.848C133.208 60.576 133.176 62.208 133.112 63.744C133.112 65.216 133.112 66.24 133.112 66.816C133.112 67.648 132.856 68.352 132.344 68.928C131.896 69.504 131.224 69.792 130.328 69.792C129.88 69.792 128.888 69.76 127.352 69.696C125.816 69.632 123.288 69.6 119.768 69.6C116.248 69.536 111.32 69.504 104.984 69.504C97.1755 69.504 90.7435 69.568 85.6875 69.696C80.6955 69.76 77.8475 69.792 77.1435 69.792ZM219.964 70.08C219.708 70.08 219.484 70.08 219.292 70.08C219.1 70.08 218.908 70.08 218.716 70.08C217.5 70.144 216.572 70.112 215.932 69.984C215.292 69.856 214.716 69.312 214.204 68.352C213.436 67.008 212.252 65.024 210.652 62.4C209.052 59.712 207.164 56.64 204.988 53.184C202.812 49.664 200.508 45.984 198.076 42.144C195.708 38.304 193.34 34.528 190.972 30.816C188.668 27.104 186.524 23.712 184.54 20.64C182.556 17.504 180.892 14.912 179.548 12.864C178.204 10.752 177.372 9.44001 177.052 8.92801C176.988 8.80001 176.828 8.76801 176.572 8.83201C176.38 8.83201 176.284 8.99201 176.284 9.312V54.048C176.284 58.912 177.212 62.304 179.068 64.224C180.988 66.08 183.228 67.008 185.788 67.008C186.108 67.008 186.396 67.136 186.652 67.392C186.972 67.584 187.132 67.904 187.132 68.352C187.132 68.8 186.972 69.152 186.652 69.408C186.396 69.664 186.108 69.792 185.788 69.792C185.148 69.792 183.836 69.76 181.852 69.696C179.868 69.568 177.468 69.504 174.652 69.504C171.324 69.504 168.796 69.568 167.068 69.696C165.404 69.76 164.22 69.792 163.516 69.792C162.684 69.792 162.268 69.312 162.268 68.352C162.268 67.456 162.684 67.008 163.516 67.008C166.204 67.008 168.38 66.048 170.044 64.128C171.772 62.208 172.636 58.88 172.636 54.144V9.40801C172.636 7.10401 172.124 5.44001 171.1 4.416C170.076 3.32801 168.252 2.78401 165.628 2.78401C164.796 2.78401 164.38 2.30401 164.38 1.344C164.38 0.512003 164.796 0.096005 165.628 0.096005C166.14 0.096005 167.836 0.128005 170.716 0.192004C173.66 0.256003 177.5 0.288002 182.236 0.288002C183.324 0.288002 184.124 0.448002 184.636 0.768002C185.148 1.08801 185.628 1.63201 186.076 2.40001C186.332 2.84801 187.1 4.06401 188.38 6.04801C189.66 8.03201 191.26 10.528 193.18 13.536C195.1 16.48 197.18 19.68 199.42 23.136C201.66 26.592 203.9 30.048 206.14 33.504C208.38 36.96 210.428 40.16 212.284 43.104C214.204 46.048 215.772 48.48 216.988 50.4C218.268 52.256 219.004 53.344 219.196 53.664C219.58 54.24 219.932 54.432 220.252 54.24C220.636 54.048 220.828 53.696 220.828 53.184V15.84C220.828 11.168 219.932 7.84001 218.14 5.85601C216.412 3.80801 214.012 2.78401 210.94 2.78401C210.108 2.78401 209.692 2.30401 209.692 1.344C209.692 0.512003 210.108 0.096005 210.94 0.096005C211.644 0.096005 213.02 0.160004 215.068 0.288002C217.116 0.352002 219.548 0.384001 222.364 0.384001C225.116 0.384001 227.484 0.352002 229.468 0.288002C231.452 0.160004 232.764 0.096005 233.404 0.096005C234.364 0.096005 234.844 0.512003 234.844 1.344C234.844 2.30401 234.364 2.78401 233.404 2.78401C230.972 2.78401 228.86 3.77601 227.068 5.76C225.34 7.68001 224.476 11.04 224.476 15.84V52.32C224.476 55.712 224.604 58.592 224.86 60.96C225.116 63.264 225.308 65.44 225.436 67.488C225.5 68.192 225.244 68.8 224.668 69.312C224.156 69.76 222.588 70.016 219.964 70.08ZM319.388 70.08C319.132 70.08 318.908 70.08 318.716 70.08C318.524 70.08 318.332 70.08 318.14 70.08C316.924 70.144 315.996 70.112 315.356 69.984C314.716 69.856 314.14 69.312 313.628 68.352C312.86 67.008 311.676 65.024 310.076 62.4C308.476 59.712 306.588 56.64 304.412 53.184C302.236 49.664 299.932 45.984 297.5 42.144C295.132 38.304 292.764 34.528 290.396 30.816C288.092 27.104 285.948 23.712 283.964 20.64C281.98 17.504 280.316 14.912 278.972 12.864C277.628 10.752 276.796 9.44001 276.476 8.92801C276.412 8.80001 276.252 8.76801 275.996 8.83201C275.804 8.83201 275.708 8.99201 275.708 9.312V54.048C275.708 58.912 276.636 62.304 278.492 64.224C280.412 66.08 282.652 67.008 285.212 67.008C285.532 67.008 285.82 67.136 286.076 67.392C286.396 67.584 286.556 67.904 286.556 68.352C286.556 68.8 286.396 69.152 286.076 69.408C285.82 69.664 285.532 69.792 285.212 69.792C284.572 69.792 283.26 69.76 281.276 69.696C279.292 69.568 276.892 69.504 274.076 69.504C270.748 69.504 268.22 69.568 266.492 69.696C264.828 69.76 263.644 69.792 262.94 69.792C262.108 69.792 261.692 69.312 261.692 68.352C261.692 67.456 262.108 67.008 262.94 67.008C265.628 67.008 267.804 66.048 269.468 64.128C271.196 62.208 272.06 58.88 272.06 54.144V9.40801C272.06 7.10401 271.548 5.44001 270.524 4.416C269.5 3.32801 267.676 2.78401 265.052 2.78401C264.22 2.78401 263.804 2.30401 263.804 1.344C263.804 0.512003 264.22 0.096005 265.052 0.096005C265.564 0.096005 267.26 0.128005 270.14 0.192004C273.084 0.256003 276.924 0.288002 281.66 0.288002C282.748 0.288002 283.548 0.448002 284.06 0.768002C284.572 1.08801 285.052 1.63201 285.5 2.40001C285.756 2.84801 286.524 4.06401 287.804 6.04801C289.084 8.03201 290.684 10.528 292.604 13.536C294.524 16.48 296.604 19.68 298.844 23.136C301.084 26.592 303.324 30.048 305.564 33.504C307.804 36.96 309.852 40.16 311.708 43.104C313.628 46.048 315.196 48.48 316.412 50.4C317.692 52.256 318.428 53.344 318.62 53.664C319.004 54.24 319.356 54.432 319.676 54.24C320.06 54.048 320.252 53.696 320.252 53.184V15.84C320.252 11.168 319.356 7.84001 317.564 5.85601C315.836 3.80801 313.436 2.78401 310.364 2.78401C309.532 2.78401 309.116 2.30401 309.116 1.344C309.116 0.512003 309.532 0.096005 310.364 0.096005C311.068 0.096005 312.444 0.160004 314.492 0.288002C316.54 0.352002 318.972 0.384001 321.788 0.384001C324.54 0.384001 326.908 0.352002 328.892 0.288002C330.876 0.160004 332.188 0.096005 332.828 0.096005C333.788 0.096005 334.268 0.512003 334.268 1.344C334.268 2.30401 333.788 2.78401 332.828 2.78401C330.396 2.78401 328.284 3.77601 326.492 5.76C324.764 7.68001 323.9 11.04 323.9 15.84V52.32C323.9 55.712 324.028 58.592 324.284 60.96C324.54 63.264 324.732 65.44 324.86 67.488C324.924 68.192 324.668 68.8 324.092 69.312C323.58 69.76 322.012 70.016 319.388 70.08ZM380.507 69.792C379.611 69.792 379.163 69.376 379.163 68.544C379.163 67.52 379.611 67.008 380.507 67.008C383.323 67.008 385.403 66.688 386.747 66.048C388.155 65.344 388.859 63.904 388.859 61.728V42.816C388.859 41.856 388.827 41.12 388.763 40.608C388.699 40.096 388.411 39.424 387.899 38.592C387.579 38.08 386.971 37.024 386.075 35.424C385.179 33.824 384.123 31.936 382.907 29.76C381.691 27.584 380.411 25.344 379.067 23.04C377.723 20.672 376.443 18.4 375.227 16.224C374.011 14.048 372.955 12.224 372.059 10.752C370.779 8.51201 369.659 6.84801 368.699 5.76C367.803 4.608 366.843 3.84 365.819 3.45601C364.859 3.07201 363.579 2.88001 361.979 2.88001C361.147 2.88001 360.731 2.40001 360.731 1.44001C360.731 0.544005 361.147 0.096005 361.979 0.096005C362.683 0.096005 364.091 0.160004 366.203 0.288002C368.315 0.352002 370.555 0.384001 372.923 0.384001C374.843 0.384001 376.891 0.384001 379.067 0.384001C381.307 0.320002 383.259 0.256003 384.923 0.192004C386.651 0.128005 387.643 0.096005 387.899 0.096005C388.859 0.096005 389.339 0.544005 389.339 1.44001C389.339 2.40001 388.859 2.88001 387.899 2.88001C385.851 2.88001 384.443 3.36001 383.675 4.32001C382.971 5.28001 383.131 6.72001 384.155 8.64001C385.051 10.432 386.203 12.64 387.611 15.264C389.019 17.888 390.427 20.576 391.835 23.328C393.307 26.08 394.619 28.544 395.771 30.72C396.987 32.832 397.819 34.272 398.267 35.04C398.459 35.36 398.619 35.552 398.747 35.616C398.939 35.616 399.163 35.392 399.419 34.944C400.059 33.92 400.987 32.352 402.203 30.24C403.419 28.128 404.731 25.856 406.139 23.424C407.547 20.928 408.827 18.56 409.979 16.32C411.195 14.08 412.091 12.32 412.667 11.04C413.627 8.80001 413.435 6.88001 412.091 5.28001C410.747 3.68001 408.571 2.88001 405.563 2.88001C404.731 2.88001 404.315 2.40001 404.315 1.44001C404.315 0.544005 404.731 0.096005 405.563 0.096005C406.267 0.096005 407.675 0.160004 409.787 0.288002C411.899 0.352002 414.459 0.384001 417.467 0.384001C420.283 0.384001 422.619 0.352002 424.475 0.288002C426.395 0.160004 427.675 0.096005 428.315 0.096005C429.275 0.096005 429.755 0.544005 429.755 1.44001C429.755 2.40001 429.275 2.88001 428.315 2.88001C425.819 2.88001 423.611 3.71201 421.691 5.37601C419.835 7.04001 418.075 9.28001 416.411 12.096C415.963 12.8 415.195 14.112 414.107 16.032C413.019 17.952 411.739 20.192 410.267 22.752C408.859 25.312 407.419 27.936 405.947 30.624C404.475 33.248 403.163 35.68 402.011 37.92C401.627 38.624 401.307 39.36 401.051 40.128C400.795 40.832 400.667 41.664 400.667 42.624V61.728C400.667 63.968 401.243 65.408 402.395 66.048C403.611 66.688 405.499 67.008 408.059 67.008C408.955 67.008 409.403 67.52 409.403 68.544C409.403 69.376 408.955 69.792 408.059 69.792C407.227 69.792 405.787 69.728 403.739 69.6C401.755 69.472 398.779 69.408 394.811 69.408C391.035 69.408 387.931 69.472 385.499 69.6C383.067 69.728 381.403 69.792 380.507 69.792ZM1.43625 188.792C0.604255 188.792 0.188255 188.28 0.188255 187.256C0.188255 186.424 0.604255 186.008 1.43625 186.008C4.18826 186.008 6.07625 185.592 7.10026 184.76C8.12426 183.864 8.63626 182.328 8.63626 180.152V127.544C8.63626 125.688 8.22026 124.28 7.38826 123.32C6.55626 122.296 4.76426 121.784 2.01225 121.784C1.05225 121.784 0.572255 121.336 0.572255 120.44C0.572255 119.544 1.05225 119.096 2.01225 119.096C2.26825 119.096 2.90825 119.128 3.93226 119.192C4.95626 119.192 6.14025 119.192 7.48425 119.192C8.82825 119.192 10.1403 119.224 11.4203 119.288C12.7003 119.288 13.7243 119.288 14.4923 119.288C15.2603 119.288 16.2843 119.288 17.5643 119.288C18.8443 119.224 20.1563 119.192 21.5003 119.192C22.8443 119.192 24.0283 119.192 25.0523 119.192C26.0763 119.128 26.7163 119.096 26.9723 119.096C27.8683 119.096 28.3163 119.544 28.3163 120.44C28.3163 121.336 27.8683 121.784 26.9723 121.784C24.2203 121.784 22.4283 122.296 21.5963 123.32C20.7643 124.28 20.3483 125.688 20.3483 127.544V150.776C20.3483 152.248 20.8923 152.408 21.9803 151.256C22.4283 150.808 23.2603 149.976 24.4763 148.76C25.6923 147.544 27.1003 146.136 28.7003 144.536C30.3003 142.872 31.9003 141.208 33.5003 139.544C35.1643 137.816 36.6363 136.248 37.9163 134.84C39.2603 133.368 40.2523 132.216 40.8923 131.384C41.7883 130.104 42.5243 129.016 43.1003 128.12C43.7403 127.16 44.0603 126.264 44.0603 125.432C44.0603 124.536 43.5803 123.704 42.6203 122.936C41.7243 122.168 40.4443 121.784 38.7803 121.784C37.9483 121.784 37.5323 121.336 37.5323 120.44C37.5323 119.544 37.9483 119.096 38.7803 119.096C39.4843 119.096 40.7963 119.128 42.7163 119.192C44.6363 119.256 47.2603 119.288 50.5883 119.288C53.7883 119.288 56.3483 119.256 58.2683 119.192C60.2523 119.128 61.5643 119.096 62.2043 119.096C63.1643 119.096 63.6443 119.544 63.6443 120.44C63.6443 121.336 63.1643 121.784 62.2043 121.784C60.7963 121.784 59.0363 122.36 56.9243 123.512C54.8763 124.6 52.7643 125.976 50.5883 127.64C48.4123 129.304 46.3963 131.032 44.5403 132.824C43.7723 133.592 42.6523 134.712 41.1803 136.184C39.7723 137.656 37.9483 139.512 35.7083 141.752C34.7483 142.712 34.6523 143.8 35.4203 145.016C35.8683 145.72 36.7323 147.192 38.0123 149.432C39.2923 151.672 40.7643 154.296 42.4283 157.304C44.0923 160.248 45.7883 163.256 47.5163 166.328C49.2443 169.4 50.8123 172.216 52.2203 174.776C53.6283 177.272 54.7163 179.128 55.4843 180.344C56.6363 182.136 57.5643 183.448 58.2683 184.28C59.0363 185.048 59.8043 185.528 60.5723 185.72C61.3403 185.912 62.3003 186.008 63.4523 186.008C64.3483 186.008 64.7963 186.424 64.7963 187.256C64.7963 188.28 64.3483 188.792 63.4523 188.792C62.8123 188.792 61.5003 188.76 59.5163 188.696C57.5323 188.568 54.9083 188.504 51.6443 188.504C49.7883 188.504 47.9323 188.536 46.0763 188.6C44.2843 188.6 42.7163 188.632 41.3723 188.696C40.0923 188.76 39.2283 188.792 38.7803 188.792C37.9483 188.792 37.5323 188.28 37.5323 187.256C37.5323 186.424 37.9483 186.008 38.7803 186.008C41.9163 186.008 43.4843 185.4 43.4843 184.184C43.4843 183.992 43.2923 183.544 42.9083 182.84C42.5883 182.072 42.1723 181.176 41.6603 180.152C41.2123 179.32 40.5083 178.04 39.5483 176.312C38.6523 174.52 37.6283 172.536 36.4763 170.36C35.3243 168.184 34.1403 166.008 32.9243 163.832C31.7723 161.592 30.7483 159.608 29.8523 157.88C28.9563 156.152 28.3163 154.904 27.9323 154.136C27.2923 152.856 26.6843 152.216 26.1083 152.216C25.5323 152.152 24.8923 152.504 24.1883 153.272C23.5483 153.912 23.1003 154.36 22.8443 154.616C22.6523 154.872 22.4923 155.064 22.3643 155.192C22.3003 155.32 22.0763 155.576 21.6923 155.96C21.1163 156.536 20.7323 157.176 20.5403 157.88C20.4123 158.584 20.3483 159.256 20.3483 159.896V180.152C20.3483 182.2 20.7963 183.704 21.6923 184.664C22.6523 185.56 24.5723 186.008 27.4523 186.008C27.8363 186.008 28.1563 186.136 28.4123 186.392C28.6683 186.648 28.7963 186.936 28.7963 187.256C28.7963 188.28 28.3483 188.792 27.4523 188.792C27.1323 188.792 26.4283 188.792 25.3403 188.792C24.2523 188.728 23.0043 188.696 21.5963 188.696C20.2523 188.632 18.9083 188.6 17.5643 188.6C16.2843 188.536 15.2603 188.504 14.4923 188.504C13.7243 188.504 12.6683 188.536 11.3243 188.6C10.0443 188.6 8.70026 188.632 7.29226 188.696C5.88426 188.696 4.63625 188.728 3.54825 188.792C2.46025 188.792 1.75625 188.792 1.43625 188.792ZM72.3675 188.792C71.5355 188.792 71.1195 188.376 71.1195 187.544C71.1195 186.52 71.5355 186.008 72.3675 186.008C74.6075 186.008 76.3675 185.624 77.6475 184.856C78.9275 184.024 80.0795 182.488 81.1035 180.248C81.6155 179.224 82.3515 177.496 83.3115 175.064C84.3355 172.632 85.4875 169.72 86.7675 166.328C88.1115 162.936 89.5195 159.32 90.9915 155.48C92.4635 151.64 93.9355 147.8 95.4075 143.96C96.8795 140.12 98.2235 136.568 99.4399 133.304C100.72 129.976 101.776 127.128 102.608 124.76C103.504 122.392 104.112 120.792 104.432 119.96C104.752 119.128 105.104 118.584 105.488 118.328C105.936 118.072 106.672 117.944 107.696 117.944C108.72 117.944 109.456 118.072 109.904 118.328C110.352 118.584 110.736 119.128 111.056 119.96C111.568 121.24 112.368 123.32 113.456 126.2C114.608 129.08 115.92 132.408 117.392 136.184C118.864 139.96 120.4 143.928 122 148.088C123.6 152.184 125.136 156.184 126.608 160.088C128.144 163.992 129.52 167.544 130.736 170.744C131.952 173.88 132.912 176.312 133.616 178.04C134.768 180.984 135.984 183.064 137.264 184.28C138.608 185.432 139.888 186.008 141.104 186.008C141.936 186.008 142.352 186.52 142.352 187.544C142.352 188.376 141.936 188.792 141.104 188.792C140.464 188.792 139.152 188.792 137.168 188.792C135.184 188.728 132.528 188.696 129.2 188.696C126.448 188.696 123.824 188.728 121.328 188.792C118.832 188.792 117.264 188.792 116.624 188.792C115.792 188.792 115.376 188.376 115.376 187.544C115.376 186.52 115.792 186.008 116.624 186.008C118.672 186.008 120.08 185.688 120.848 185.048C121.68 184.344 122.096 183.544 122.096 182.648C122.096 181.688 121.936 180.888 121.616 180.248C121.552 180.12 121.36 179.576 121.04 178.616C120.72 177.592 120.304 176.376 119.792 174.968C119.344 173.496 118.864 172.024 118.352 170.552C117.84 169.016 117.392 167.672 117.008 166.52C116.752 165.816 116.496 165.4 116.24 165.272C115.984 165.144 115.632 165.08 115.184 165.08H91.5675C91.2475 165.08 90.9915 165.112 90.7995 165.176C90.6075 165.24 90.4475 165.496 90.3195 165.944C89.9995 167.288 89.5195 168.888 88.8795 170.744C88.3035 172.536 87.7915 174.296 87.3435 176.024C86.8955 177.688 86.6715 179.064 86.6715 180.152C86.6715 182.52 87.2475 184.088 88.3995 184.856C89.6155 185.624 91.2795 186.008 93.3915 186.008C94.2235 186.008 94.6395 186.52 94.6395 187.544C94.6395 188.376 94.2235 188.792 93.3915 188.792C92.7515 188.792 91.5355 188.792 89.7435 188.792C88.0155 188.728 85.7435 188.696 82.9275 188.696C80.4315 188.696 78.2235 188.728 76.3035 188.792C74.3835 188.792 73.0715 188.792 72.3675 188.792ZM93.0075 161.912H113.84C114.096 161.912 114.352 161.88 114.608 161.816C114.928 161.688 114.992 161.304 114.8 160.664C114.288 159.128 113.648 157.272 112.88 155.096C112.112 152.856 111.28 150.52 110.384 148.088C109.488 145.656 108.624 143.32 107.792 141.08C107.024 138.84 106.32 136.888 105.68 135.224C105.104 133.56 104.72 132.44 104.528 131.864C104.4 131.544 104.208 131.352 103.952 131.288C103.76 131.224 103.6 131.352 103.472 131.672C103.344 132.12 102.928 133.24 102.224 135.032C101.52 136.76 100.656 138.872 99.6319 141.368C98.6715 143.8 97.6795 146.328 96.6555 148.952C95.6315 151.512 94.7035 153.848 93.8715 155.96C93.1035 158.008 92.5595 159.512 92.2395 160.472C91.9835 161.432 92.2395 161.912 93.0075 161.912ZM106.544 116.792C104.176 116.792 102.128 115.96 100.4 114.296C98.7355 112.568 97.9035 110.52 97.9035 108.152C97.9035 105.72 98.7355 103.672 100.4 102.008C102.128 100.344 104.176 99.512 106.544 99.512C108.976 99.512 111.024 100.344 112.688 102.008C114.352 103.672 115.184 105.72 115.184 108.152C115.184 110.52 114.352 112.568 112.688 114.296C111.024 115.96 108.976 116.792 106.544 116.792ZM106.544 112.568C107.824 112.568 108.88 112.152 109.712 111.32C110.544 110.424 110.96 109.368 110.96 108.152C110.96 106.872 110.544 105.816 109.712 104.984C108.88 104.152 107.824 103.736 106.544 103.736C105.328 103.736 104.272 104.152 103.376 104.984C102.544 105.816 102.128 106.872 102.128 108.152C102.128 109.368 102.544 110.424 103.376 111.32C104.272 112.152 105.328 112.568 106.544 112.568ZM150.938 188.792C150.042 188.792 149.594 188.344 149.594 187.448C149.594 186.552 150.042 186.104 150.938 186.104C154.266 186.104 156.506 185.624 157.658 184.664C158.81 183.64 159.386 182.168 159.386 180.248V127.544C159.386 125.624 158.81 124.184 157.658 123.224C156.57 122.264 154.266 121.784 150.746 121.784C149.914 121.784 149.498 121.336 149.498 120.44C149.498 119.544 149.914 119.096 150.746 119.096C151.322 119.096 152.954 119.16 155.642 119.288C158.394 119.352 161.594 119.384 165.242 119.384C171.962 119.384 177.434 119.352 181.658 119.288C185.882 119.16 188.666 119.096 190.01 119.096C193.786 119.096 197.05 119.768 199.802 121.112C202.618 122.456 204.794 124.312 206.33 126.68C207.866 128.984 208.634 131.64 208.634 134.648C208.634 137.784 207.962 140.44 206.618 142.616C205.338 144.792 203.674 146.584 201.626 147.992C199.578 149.336 197.434 150.424 195.194 151.256C194.554 151.512 194.234 151.8 194.234 152.12C194.234 152.44 194.522 152.664 195.098 152.792C196.826 153.048 198.618 153.528 200.474 154.232C202.394 154.936 204.186 155.96 205.85 157.304C207.514 158.584 208.858 160.248 209.882 162.296C210.97 164.28 211.514 166.712 211.514 169.592C211.514 173.816 210.458 177.368 208.346 180.248C206.234 183.064 203.29 185.208 199.514 186.68C195.802 188.088 191.45 188.792 186.458 188.792C185.754 188.792 184.986 188.792 184.154 188.792C183.322 188.728 182.17 188.696 180.698 188.696C179.29 188.696 177.338 188.696 174.842 188.696C172.346 188.632 169.082 188.6 165.05 188.6C161.338 188.6 158.202 188.632 155.642 188.696C153.146 188.76 151.578 188.792 150.938 188.792ZM173.21 185.912H183.29C188.41 185.912 192.154 184.376 194.522 181.304C196.954 178.232 198.17 174.328 198.17 169.592C198.17 165.176 196.89 161.496 194.33 158.552C191.834 155.544 187.866 154.04 182.426 154.04H172.25C171.93 154.04 171.642 154.168 171.386 154.424C171.194 154.68 171.098 154.968 171.098 155.288V183.896C171.098 184.472 171.226 184.952 171.482 185.336C171.802 185.72 172.378 185.912 173.21 185.912ZM172.346 150.68H182.618C191.386 150.68 195.77 145.464 195.77 135.032C195.77 131.256 194.874 128.152 193.082 125.72C191.29 123.288 188.154 122.072 183.674 122.072H173.018C172.57 122.072 172.122 122.2 171.674 122.456C171.29 122.648 171.098 123.192 171.098 124.088V149.336C171.098 149.592 171.226 149.88 171.482 150.2C171.738 150.52 172.026 150.68 172.346 150.68ZM224.039 188.792C223.207 188.792 222.791 188.28 222.791 187.256C222.791 186.424 223.207 186.008 224.039 186.008C227.623 186.008 230.023 185.56 231.239 184.664C232.519 183.768 233.159 182.264 233.159 180.152V127.544C233.159 125.624 232.583 124.184 231.431 123.224C230.279 122.264 227.975 121.784 224.519 121.784C223.687 121.784 223.271 121.304 223.271 120.344C223.271 119.512 223.687 119.096 224.519 119.096C225.031 119.096 227.463 119.128 231.815 119.192C236.231 119.256 242.695 119.288 251.207 119.288C259.271 119.288 265.383 119.256 269.543 119.192C273.703 119.128 276.071 119.096 276.647 119.096C278.119 119.096 278.887 119.832 278.951 121.304C279.079 121.88 279.175 122.84 279.239 124.184C279.303 125.464 279.367 126.84 279.431 128.312C279.495 129.784 279.527 131.096 279.527 132.248C279.591 133.4 279.623 134.136 279.623 134.456C279.623 134.712 279.559 135 279.431 135.32C279.303 135.576 279.015 135.704 278.567 135.704C278.119 135.704 277.767 135.672 277.511 135.608C277.319 135.48 277.127 135.192 276.935 134.744C276.167 133.016 275.175 131.192 273.959 129.272C272.807 127.288 271.239 125.592 269.255 124.184C267.335 122.776 264.807 122.072 261.671 122.072H246.791C246.215 122.072 245.735 122.2 245.351 122.456C244.967 122.712 244.775 123.256 244.775 124.088V150.392C244.775 150.648 244.903 150.936 245.159 151.256C245.415 151.512 245.703 151.64 246.023 151.64H250.919C253.607 151.64 255.655 151.064 257.063 149.912C258.471 148.76 259.495 147.416 260.135 145.88C260.839 144.344 261.415 143.032 261.863 141.944C262.055 141.432 262.215 141.08 262.343 140.888C262.535 140.632 262.887 140.504 263.399 140.504C263.847 140.504 264.135 140.664 264.263 140.984C264.455 141.304 264.551 141.624 264.551 141.944C264.551 142.456 264.519 143.384 264.455 144.728C264.455 146.008 264.423 147.416 264.359 148.952C264.359 150.488 264.359 151.896 264.359 153.176C264.359 154.392 264.359 155.864 264.359 157.592C264.423 159.256 264.455 160.792 264.455 162.2C264.519 163.544 264.551 164.44 264.551 164.888C264.551 165.848 264.167 166.328 263.399 166.328C262.695 166.328 262.215 165.912 261.959 165.08C261.511 163.864 260.935 162.456 260.231 160.856C259.527 159.192 258.471 157.752 257.063 156.536C255.655 155.256 253.607 154.616 250.919 154.616H246.023C245.191 154.616 244.775 155.096 244.775 156.056V183.8C244.775 185.016 245.415 185.624 246.695 185.624H259.655C262.727 185.624 265.319 185.08 267.431 183.992C269.543 182.84 271.271 181.432 272.615 179.768C274.023 178.04 275.111 176.344 275.879 174.68C276.647 172.952 277.223 171.512 277.607 170.36C277.799 169.784 277.991 169.464 278.183 169.4C278.439 169.336 278.791 169.336 279.239 169.4C279.303 169.4 279.335 169.4 279.335 169.4C279.847 169.464 280.135 169.624 280.199 169.88C280.263 170.136 280.295 170.424 280.295 170.744C280.295 171 280.263 171.8 280.199 173.144C280.199 174.488 280.167 176.056 280.103 177.848C280.103 179.576 280.071 181.208 280.007 182.744C280.007 184.216 280.007 185.24 280.007 185.816C280.007 186.648 279.751 187.352 279.239 187.928C278.791 188.504 278.119 188.792 277.223 188.792C276.775 188.792 275.783 188.76 274.247 188.696C272.711 188.632 270.183 188.6 266.663 188.6C263.143 188.536 258.215 188.504 251.879 188.504C244.071 188.504 237.639 188.568 232.583 188.696C227.591 188.76 224.743 188.792 224.039 188.792ZM342.955 189.56C340.459 189.56 338.411 188.952 336.811 187.736C335.275 186.456 333.995 184.792 332.971 182.744C332.011 180.696 331.211 178.456 330.571 176.024C329.931 173.592 329.323 171.16 328.747 168.728C328.235 166.296 327.595 164.056 326.827 162.008C326.059 159.96 325.035 158.328 323.755 157.112C322.539 155.832 320.907 155.192 318.859 155.192H311.371C310.539 155.192 310.123 155.576 310.123 156.344V180.152C310.123 181.432 310.283 182.52 310.603 183.416C310.987 184.312 311.755 184.984 312.907 185.432C314.059 185.816 315.819 186.008 318.187 186.008C319.019 186.008 319.435 186.488 319.435 187.448C319.435 187.768 319.307 188.088 319.051 188.408C318.859 188.664 318.571 188.792 318.187 188.792C317.547 188.792 315.947 188.76 313.387 188.696C310.891 188.568 307.883 188.504 304.363 188.504C301.035 188.504 298.155 188.568 295.723 188.696C293.355 188.76 291.819 188.792 291.115 188.792C290.283 188.792 289.867 188.344 289.867 187.448C289.867 186.488 290.283 186.008 291.115 186.008C293.483 186.008 295.179 185.784 296.203 185.336C297.227 184.888 297.867 184.248 298.123 183.416C298.379 182.52 298.507 181.432 298.507 180.152V127.544C298.507 126.392 298.347 125.4 298.027 124.568C297.771 123.736 297.131 123.096 296.107 122.648C295.147 122.136 293.547 121.88 291.307 121.88C290.859 121.88 290.507 121.752 290.251 121.496C290.059 121.176 289.963 120.856 289.963 120.536C289.963 119.576 290.411 119.096 291.307 119.096C291.755 119.096 293.195 119.16 295.627 119.288C298.123 119.352 301.035 119.384 304.363 119.384C309.675 119.384 314.091 119.352 317.611 119.288C321.131 119.16 324.043 119.096 326.347 119.096C330.251 119.096 333.803 119.704 337.003 120.92C340.267 122.072 342.891 123.928 344.875 126.488C346.859 129.048 347.851 132.408 347.851 136.568C347.851 139.32 347.307 141.656 346.219 143.576C345.131 145.496 343.755 147.096 342.091 148.376C340.427 149.592 338.635 150.584 336.715 151.352C334.859 152.12 333.099 152.728 331.435 153.176C330.795 153.368 330.443 153.624 330.379 153.944C330.379 154.264 330.507 154.488 330.763 154.616C333.131 155.384 335.019 156.632 336.427 158.36C337.899 160.024 339.051 161.944 339.883 164.12C340.715 166.232 341.387 168.408 341.899 170.648C342.475 172.888 343.019 174.968 343.531 176.888C344.043 178.744 344.683 180.248 345.451 181.4C346.219 182.552 347.275 183.128 348.619 183.128C349.195 183.128 349.771 183 350.347 182.744C350.923 182.424 351.531 181.912 352.171 181.208C352.491 180.824 352.779 180.568 353.035 180.44C353.291 180.312 353.611 180.408 353.995 180.728C354.315 180.984 354.443 181.272 354.379 181.592C354.379 181.912 354.283 182.296 354.091 182.744C353.451 184.152 352.139 185.656 350.155 187.256C348.235 188.792 345.835 189.56 342.955 189.56ZM311.371 152.024H320.395C325.131 152.024 328.747 150.744 331.243 148.184C333.739 145.624 334.987 141.752 334.987 136.568C334.987 132.28 333.931 128.792 331.819 126.104C329.771 123.416 326.635 122.072 322.411 122.072H312.139C311.627 122.072 311.147 122.2 310.699 122.456C310.315 122.648 310.123 123.192 310.123 124.088V150.68C310.123 150.936 310.251 151.224 310.507 151.544C310.763 151.864 311.051 152.024 311.371 152.024ZM394.64 189.944C388.496 189.944 383.024 188.6 378.224 185.912C373.424 183.224 369.648 179.192 366.896 173.816C364.144 168.376 362.768 161.624 362.768 153.56C362.768 147.992 363.696 143.032 365.552 138.68C367.408 134.264 369.904 130.52 373.04 127.448C376.176 124.376 379.664 122.04 383.504 120.44C387.408 118.776 391.408 117.944 395.504 117.944C398.32 117.944 400.976 118.36 403.472 119.192C405.968 119.96 407.664 120.6 408.56 121.112C409.264 121.56 409.872 121.784 410.384 121.784C410.96 121.72 411.472 121.592 411.92 121.4C412.24 121.272 412.848 120.984 413.744 120.536C414.64 120.088 415.248 119.832 415.568 119.768C416.144 119.576 416.784 119.64 417.488 119.96C418.256 120.216 418.64 120.728 418.64 121.496V138.968C418.64 139.608 418.192 140.024 417.296 140.216C416.464 140.344 415.92 140.12 415.664 139.544C414.192 136.536 412.528 133.656 410.672 130.904C408.816 128.088 406.672 125.784 404.24 123.992C401.808 122.2 398.896 121.304 395.504 121.304C393.136 121.304 390.8 121.88 388.496 123.032C386.256 124.12 384.208 125.944 382.352 128.504C380.496 131 378.992 134.328 377.84 138.488C376.752 142.584 376.208 147.608 376.208 153.56C376.208 161.816 377.008 168.344 378.608 173.144C380.208 177.944 382.416 181.368 385.232 183.416C388.048 185.4 391.248 186.392 394.832 186.392C400.08 186.392 403.76 184.952 405.872 182.072C407.984 179.128 409.04 175.352 409.04 170.744V166.52C409.04 164.856 408.624 163.576 407.792 162.68C406.96 161.784 405.104 161.336 402.224 161.336C401.776 161.336 401.424 161.208 401.168 160.952C400.912 160.632 400.784 160.312 400.784 159.992C400.784 159.032 401.264 158.552 402.224 158.552C402.672 158.552 403.568 158.584 404.912 158.648C406.32 158.712 407.888 158.776 409.616 158.84C411.408 158.904 413.104 158.936 414.704 158.936C417.136 158.936 419.568 158.872 422 158.744C424.432 158.616 426.064 158.552 426.896 158.552C427.344 158.552 427.728 158.68 428.048 158.936C428.432 159.192 428.624 159.544 428.624 159.992C428.624 160.376 428.432 160.696 428.048 160.952C427.728 161.208 427.344 161.336 426.896 161.336C425.104 161.336 423.632 161.688 422.48 162.392C421.328 163.032 420.752 164.504 420.752 166.808C420.752 172.248 420.848 176.792 421.04 180.44C421.232 184.024 421.328 186.04 421.328 186.488C421.328 187.192 420.944 187.64 420.176 187.832C419.472 187.96 418.96 187.832 418.64 187.448C418.384 187.128 417.936 186.584 417.296 185.816C416.72 184.984 416.144 184.216 415.568 183.512C415.056 182.744 414.736 182.328 414.608 182.264C413.776 181.432 413.008 181.4 412.304 182.168C410.64 184.152 408.336 185.944 405.392 187.544C402.448 189.144 398.864 189.944 394.64 189.944ZM1.326 307.792C0.494005 307.792 0.078005 307.28 0.078005 306.256C0.078005 305.424 0.494005 305.008 1.326 305.008C4.014 305.008 6.19 304.048 7.854 302.128C9.51797 300.144 10.35 296.816 10.35 292.144V247.408C10.35 245.104 9.80598 243.44 8.71801 242.416C7.69401 241.328 5.87 240.784 3.246 240.784C2.414 240.784 1.998 240.336 1.998 239.44C1.998 238.544 2.414 238.096 3.246 238.096C3.822 238.096 5.80601 238.128 9.19798 238.192C12.59 238.256 16.622 238.288 21.294 238.288C23.47 238.288 24.846 239.12 25.422 240.784C25.55 241.168 25.998 242.448 26.766 244.624C27.534 246.8 28.462 249.488 29.55 252.688C30.702 255.824 31.886 259.152 33.102 262.672C34.382 266.128 35.566 269.424 36.654 272.56C37.806 275.696 38.766 278.32 39.534 280.432C40.302 282.48 40.718 283.632 40.782 283.888C41.486 285.872 42.318 285.68 43.278 283.312C43.406 282.928 43.822 281.744 44.526 279.76C45.294 277.712 46.19 275.184 47.214 272.176C48.302 269.104 49.422 265.872 50.574 262.48C51.726 259.088 52.814 255.888 53.838 252.88C54.926 249.808 55.822 247.216 56.526 245.104C57.294 242.928 57.742 241.616 57.87 241.168C58.446 239.248 59.854 238.288 62.094 238.288C66.766 238.288 70.67 238.256 73.806 238.192C76.942 238.128 78.734 238.096 79.182 238.096C80.014 238.096 80.43 238.544 80.43 239.44C80.43 240.336 80.014 240.784 79.182 240.784C76.814 240.784 75.15 241.296 74.19 242.32C73.294 243.28 72.846 244.688 72.846 246.544V298.864C72.846 300.912 73.23 302.448 73.998 303.472C74.766 304.496 76.302 305.008 78.606 305.008C79.438 305.008 79.854 305.424 79.854 306.256C79.854 307.28 79.438 307.792 78.606 307.792C77.966 307.792 76.686 307.76 74.766 307.696C72.91 307.568 70.51 307.504 67.566 307.504C65.71 307.504 63.758 307.536 61.71 307.6C59.726 307.6 57.998 307.632 56.526 307.696C55.054 307.76 54.094 307.792 53.646 307.792C52.686 307.792 52.206 307.28 52.206 306.256C52.206 305.424 52.686 305.008 53.646 305.008C56.59 305.008 58.606 304.56 59.694 303.664C60.782 302.704 61.326 301.104 61.326 298.864V244.816C61.326 244.368 61.166 244.144 60.846 244.144C60.526 244.144 60.302 244.272 60.174 244.528C60.11 244.72 59.662 245.936 58.83 248.176C58.062 250.416 57.038 253.328 55.758 256.912C54.542 260.496 53.198 264.432 51.726 268.72C50.254 272.944 48.782 277.168 47.31 281.392C45.838 285.616 44.494 289.488 43.278 293.008C42.062 296.528 41.07 299.376 40.302 301.552C39.598 303.728 39.246 304.816 39.246 304.816C39.054 305.328 38.862 305.648 38.67 305.776C38.542 305.84 38.318 305.872 37.998 305.872C37.486 305.872 37.102 305.584 36.846 305.008C36.782 304.88 36.334 303.76 35.502 301.648C34.734 299.536 33.678 296.752 32.334 293.296C31.054 289.84 29.646 286.064 28.11 281.968C26.574 277.872 25.006 273.776 23.406 269.68C21.87 265.584 20.43 261.84 19.086 258.448C17.806 254.992 16.75 252.208 15.918 250.096C15.15 247.92 14.734 246.8 14.67 246.736C14.606 246.544 14.446 246.48 14.19 246.544C13.998 246.608 13.902 246.768 13.902 247.024V292.048C13.902 296.912 14.862 300.304 16.782 302.224C18.702 304.08 20.942 305.008 23.502 305.008C24.462 305.008 24.942 305.424 24.942 306.256C24.942 307.28 24.462 307.792 23.502 307.792C22.862 307.792 21.55 307.76 19.566 307.696C17.646 307.568 15.278 307.504 12.462 307.504C9.13398 307.504 6.60601 307.568 4.87801 307.696C3.214 307.76 2.03 307.792 1.326 307.792ZM92.211 307.792C91.379 307.792 90.963 307.28 90.963 306.256C90.963 305.424 91.379 305.008 92.211 305.008C95.795 305.008 98.195 304.56 99.4109 303.664C100.691 302.768 101.331 301.264 101.331 299.152V246.544C101.331 244.624 100.755 243.184 99.6029 242.224C98.451 241.264 96.147 240.784 92.691 240.784C91.859 240.784 91.443 240.304 91.443 239.344C91.443 238.512 91.859 238.096 92.691 238.096C93.203 238.096 95.635 238.128 99.9869 238.192C104.403 238.256 110.867 238.288 119.379 238.288C127.443 238.288 133.555 238.256 137.715 238.192C141.875 238.128 144.243 238.096 144.819 238.096C146.291 238.096 147.059 238.832 147.123 240.304C147.251 240.88 147.347 241.84 147.411 243.184C147.475 244.464 147.539 245.84 147.603 247.312C147.667 248.784 147.699 250.096 147.699 251.248C147.763 252.4 147.795 253.136 147.795 253.456C147.795 253.712 147.731 254 147.603 254.32C147.475 254.576 147.187 254.704 146.739 254.704C146.291 254.704 145.939 254.672 145.683 254.608C145.491 254.48 145.299 254.192 145.107 253.744C144.339 252.016 143.347 250.192 142.131 248.272C140.979 246.288 139.411 244.592 137.427 243.184C135.507 241.776 132.979 241.072 129.843 241.072H114.963C114.387 241.072 113.907 241.2 113.523 241.456C113.139 241.712 112.947 242.256 112.947 243.088V269.392C112.947 269.648 113.075 269.936 113.331 270.256C113.587 270.512 113.875 270.64 114.195 270.64H119.091C121.779 270.64 123.827 270.064 125.235 268.912C126.643 267.76 127.667 266.416 128.307 264.88C129.011 263.344 129.587 262.032 130.035 260.944C130.227 260.432 130.387 260.08 130.515 259.888C130.707 259.632 131.059 259.504 131.571 259.504C132.019 259.504 132.307 259.664 132.435 259.984C132.627 260.304 132.723 260.624 132.723 260.944C132.723 261.456 132.691 262.384 132.627 263.728C132.627 265.008 132.595 266.416 132.531 267.952C132.531 269.488 132.531 270.896 132.531 272.176C132.531 273.392 132.531 274.864 132.531 276.592C132.595 278.256 132.627 279.792 132.627 281.2C132.691 282.544 132.723 283.44 132.723 283.888C132.723 284.848 132.339 285.328 131.571 285.328C130.867 285.328 130.387 284.912 130.131 284.08C129.683 282.864 129.107 281.456 128.403 279.856C127.699 278.192 126.643 276.752 125.235 275.536C123.827 274.256 121.779 273.616 119.091 273.616H114.195C113.363 273.616 112.947 274.096 112.947 275.056V302.8C112.947 304.016 113.587 304.624 114.867 304.624H127.827C130.899 304.624 133.491 304.08 135.603 302.992C137.715 301.84 139.443 300.432 140.787 298.768C142.195 297.04 143.283 295.344 144.051 293.68C144.819 291.952 145.395 290.512 145.779 289.36C145.971 288.784 146.163 288.464 146.355 288.4C146.611 288.336 146.963 288.336 147.411 288.4C147.475 288.4 147.507 288.4 147.507 288.4C148.019 288.464 148.307 288.624 148.371 288.88C148.435 289.136 148.467 289.424 148.467 289.744C148.467 290 148.435 290.8 148.371 292.144C148.371 293.488 148.339 295.056 148.275 296.848C148.275 298.576 148.243 300.208 148.179 301.744C148.179 303.216 148.179 304.24 148.179 304.816C148.179 305.648 147.923 306.352 147.411 306.928C146.963 307.504 146.291 307.792 145.395 307.792C144.947 307.792 143.955 307.76 142.419 307.696C140.883 307.632 138.355 307.6 134.835 307.6C131.315 307.536 126.387 307.504 120.051 307.504C112.243 307.504 105.811 307.568 100.755 307.696C95.763 307.76 92.915 307.792 92.211 307.792ZM176.183 307.792C175.351 307.792 174.935 307.344 174.935 306.448C174.935 305.488 175.351 305.008 176.183 305.008C179.767 305.008 182.167 304.496 183.383 303.472C184.599 302.448 185.207 301.008 185.207 299.152V243.088C185.207 241.744 184.535 241.072 183.191 241.072H177.431C174.999 241.072 172.919 241.648 171.191 242.8C169.463 243.888 168.023 245.296 166.871 247.024C165.719 248.688 164.791 250.352 164.087 252.016C163.383 253.68 162.839 255.088 162.455 256.24C162.327 256.624 162.135 256.848 161.879 256.912C161.623 256.976 161.271 256.976 160.823 256.912C160.759 256.912 160.695 256.912 160.631 256.912C160.247 256.848 160.023 256.72 159.959 256.528C159.895 256.272 159.863 256.016 159.863 255.76C159.863 255.504 159.895 254.672 159.959 253.264C160.023 251.856 160.087 250.256 160.151 248.464C160.279 246.672 160.375 245.008 160.439 243.472C160.503 241.936 160.535 240.88 160.535 240.304C160.535 238.832 161.367 238.096 163.031 238.096C163.351 238.096 164.727 238.128 167.159 238.192C169.591 238.256 172.855 238.32 176.951 238.384C181.111 238.384 185.879 238.384 191.255 238.384C196.631 238.384 201.367 238.384 205.463 238.384C209.623 238.32 212.951 238.256 215.447 238.192C217.943 238.128 219.351 238.096 219.671 238.096C221.207 238.096 222.007 238.864 222.071 240.4C222.071 240.848 222.103 241.84 222.167 243.376C222.295 244.848 222.391 246.512 222.455 248.368C222.519 250.16 222.583 251.792 222.647 253.264C222.711 254.672 222.743 255.504 222.743 255.76C222.743 256.144 222.711 256.432 222.647 256.624C222.583 256.752 222.295 256.848 221.783 256.912C221.719 256.912 221.623 256.944 221.495 257.008C221.239 257.008 221.015 257.008 220.823 257.008C220.631 256.944 220.407 256.656 220.151 256.144C219.639 255.056 218.999 253.68 218.231 252.016C217.527 250.352 216.599 248.688 215.447 247.024C214.359 245.36 212.983 243.952 211.319 242.8C209.655 241.648 207.607 241.072 205.175 241.072H198.839C198.263 241.072 197.751 241.2 197.303 241.456C196.919 241.648 196.727 242.192 196.727 243.088V299.152C196.727 300.24 196.887 301.232 197.207 302.128C197.591 303.024 198.391 303.728 199.607 304.24C200.887 304.752 202.839 305.008 205.463 305.008C206.423 305.008 206.903 305.488 206.903 306.448C206.903 307.344 206.423 307.792 205.463 307.792C204.823 307.792 203.223 307.76 200.663 307.696C198.167 307.568 194.935 307.504 190.967 307.504C186.999 307.504 183.703 307.568 181.079 307.696C178.519 307.76 176.887 307.792 176.183 307.792ZM219.244 307.792C218.412 307.792 217.996 307.376 217.996 306.544C217.996 305.52 218.412 305.008 219.244 305.008C221.484 305.008 223.244 304.624 224.524 303.856C225.804 303.024 226.956 301.488 227.98 299.248C228.492 298.224 229.228 296.496 230.188 294.064C231.212 291.632 232.364 288.72 233.644 285.328C234.988 281.936 236.396 278.32 237.868 274.48C239.34 270.64 240.812 266.8 242.284 262.96C243.756 259.12 245.1 255.568 246.316 252.304C247.596 248.976 248.652 246.128 249.484 243.76C250.38 241.392 250.988 239.792 251.308 238.96C251.628 238.128 251.98 237.584 252.364 237.328C252.812 237.072 253.548 236.944 254.572 236.944C255.596 236.944 256.332 237.072 256.78 237.328C257.228 237.584 257.612 238.128 257.932 238.96C258.444 240.24 259.244 242.32 260.332 245.2C261.484 248.08 262.796 251.408 264.268 255.184C265.74 258.96 267.276 262.928 268.876 267.088C270.476 271.184 272.012 275.184 273.484 279.088C275.02 282.992 276.396 286.544 277.612 289.744C278.828 292.88 279.788 295.312 280.492 297.04C281.644 299.984 282.86 302.064 284.14 303.28C285.484 304.432 286.764 305.008 287.98 305.008C288.812 305.008 289.228 305.52 289.228 306.544C289.228 307.376 288.812 307.792 287.98 307.792C287.34 307.792 286.028 307.792 284.044 307.792C282.06 307.728 279.404 307.696 276.076 307.696C273.324 307.696 270.7 307.728 268.204 307.792C265.708 307.792 264.14 307.792 263.5 307.792C262.668 307.792 262.252 307.376 262.252 306.544C262.252 305.52 262.668 305.008 263.5 305.008C265.548 305.008 266.956 304.688 267.724 304.048C268.556 303.344 268.972 302.544 268.972 301.648C268.972 300.688 268.812 299.888 268.492 299.248C268.428 299.12 268.236 298.576 267.916 297.616C267.596 296.592 267.18 295.376 266.668 293.968C266.22 292.496 265.74 291.024 265.228 289.552C264.716 288.016 264.268 286.672 263.884 285.52C263.628 284.816 263.372 284.4 263.116 284.272C262.86 284.144 262.508 284.08 262.06 284.08H238.444C238.124 284.08 237.868 284.112 237.676 284.176C237.484 284.24 237.324 284.496 237.196 284.944C236.876 286.288 236.396 287.888 235.756 289.744C235.18 291.536 234.668 293.296 234.22 295.024C233.772 296.688 233.548 298.064 233.548 299.152C233.548 301.52 234.124 303.088 235.276 303.856C236.492 304.624 238.156 305.008 240.268 305.008C241.1 305.008 241.516 305.52 241.516 306.544C241.516 307.376 241.1 307.792 240.268 307.792C239.628 307.792 238.412 307.792 236.62 307.792C234.892 307.728 232.62 307.696 229.804 307.696C227.308 307.696 225.1 307.728 223.18 307.792C221.26 307.792 219.948 307.792 219.244 307.792ZM239.884 280.912H260.716C260.972 280.912 261.228 280.88 261.484 280.816C261.804 280.688 261.868 280.304 261.676 279.664C261.164 278.128 260.524 276.272 259.756 274.096C258.988 271.856 258.156 269.52 257.26 267.088C256.364 264.656 255.5 262.32 254.668 260.08C253.9 257.84 253.196 255.888 252.556 254.224C251.98 252.56 251.596 251.44 251.404 250.864C251.276 250.544 251.084 250.352 250.828 250.288C250.636 250.224 250.476 250.352 250.348 250.672C250.22 251.12 249.804 252.24 249.1 254.032C248.396 255.76 247.532 257.872 246.508 260.368C245.548 262.8 244.556 265.328 243.532 267.952C242.508 270.512 241.58 272.848 240.748 274.96C239.98 277.008 239.436 278.512 239.116 279.472C238.86 280.432 239.116 280.912 239.884 280.912ZM299.926 307.792C299.03 307.792 298.582 307.376 298.582 306.544C298.582 305.52 299.03 305.008 299.926 305.008C303.382 305.008 305.75 304.592 307.03 303.76C308.31 302.928 308.95 301.424 308.95 299.248V246.352C308.95 244.496 308.438 243.12 307.414 242.224C306.454 241.264 304.214 240.784 300.694 240.784C299.862 240.784 299.446 240.272 299.446 239.248C299.446 238.416 299.862 238 300.694 238C301.27 238 302.902 238.032 305.59 238.096C308.278 238.16 311.35 238.192 314.806 238.192C317.11 238.192 319.286 238.192 321.334 238.192C323.382 238.128 325.11 238.096 326.518 238.096C327.99 238.032 328.886 238 329.206 238C330.102 238 330.55 238.416 330.55 239.248C330.55 240.272 330.102 240.784 329.206 240.784C325.686 240.784 323.35 241.264 322.198 242.224C321.11 243.12 320.566 244.496 320.566 246.352V302.896C320.566 304.176 321.238 304.816 322.582 304.816H337.462C340.598 304.816 343.35 303.92 345.718 302.128C348.15 300.336 350.198 298.128 351.862 295.504C353.59 292.816 354.934 290.192 355.894 287.632C356.086 287.12 356.342 286.8 356.662 286.672C356.982 286.48 357.27 286.416 357.526 286.48C358.038 286.544 358.358 286.736 358.486 287.056C358.614 287.312 358.678 287.6 358.678 287.92C358.678 288.112 358.678 288.912 358.678 290.32C358.678 291.728 358.646 293.424 358.582 295.408C358.582 297.328 358.55 299.184 358.486 300.976C358.486 302.768 358.454 304.112 358.39 305.008C358.326 305.84 358.07 306.512 357.622 307.024C357.174 307.536 356.502 307.792 355.606 307.792C355.158 307.792 353.974 307.792 352.054 307.792C350.134 307.728 347.254 307.696 343.414 307.696C339.574 307.696 334.486 307.696 328.15 307.696C322.902 307.696 318.23 307.696 314.134 307.696C310.038 307.696 306.742 307.728 304.246 307.792C301.814 307.792 300.374 307.792 299.926 307.792ZM370.351 307.792C369.455 307.792 369.007 307.376 369.007 306.544C369.007 305.52 369.455 305.008 370.351 305.008C373.807 305.008 376.175 304.592 377.455 303.76C378.735 302.928 379.375 301.424 379.375 299.248V246.352C379.375 244.496 378.863 243.12 377.839 242.224C376.879 241.264 374.639 240.784 371.119 240.784C370.287 240.784 369.871 240.272 369.871 239.248C369.871 238.416 370.287 238 371.119 238C371.695 238 373.327 238.032 376.015 238.096C378.703 238.16 381.775 238.192 385.231 238.192C387.535 238.192 389.711 238.192 391.759 238.192C393.807 238.128 395.535 238.096 396.943 238.096C398.415 238.032 399.311 238 399.631 238C400.527 238 400.975 238.416 400.975 239.248C400.975 240.272 400.527 240.784 399.631 240.784C396.111 240.784 393.775 241.264 392.623 242.224C391.535 243.12 390.991 244.496 390.991 246.352V302.896C390.991 304.176 391.663 304.816 393.007 304.816H407.887C411.023 304.816 413.775 303.92 416.143 302.128C418.575 300.336 420.623 298.128 422.287 295.504C424.015 292.816 425.359 290.192 426.319 287.632C426.511 287.12 426.767 286.8 427.087 286.672C427.407 286.48 427.695 286.416 427.951 286.48C428.463 286.544 428.783 286.736 428.911 287.056C429.039 287.312 429.103 287.6 429.103 287.92C429.103 288.112 429.103 288.912 429.103 290.32C429.103 291.728 429.071 293.424 429.007 295.408C429.007 297.328 428.975 299.184 428.911 300.976C428.911 302.768 428.879 304.112 428.815 305.008C428.751 305.84 428.495 306.512 428.047 307.024C427.599 307.536 426.927 307.792 426.031 307.792C425.583 307.792 424.399 307.792 422.479 307.792C420.559 307.728 417.679 307.696 413.839 307.696C409.999 307.696 404.911 307.696 398.575 307.696C393.327 307.696 388.655 307.696 384.559 307.696C380.463 307.696 377.167 307.728 374.671 307.792C372.239 307.792 370.799 307.792 370.351 307.792ZM1.44 426.792C0.544005 426.792 0.096005 426.344 0.096005 425.448C0.096005 424.552 0.544005 424.104 1.44 424.104C4.768 424.104 7.00801 423.624 8.16001 422.664C9.31198 421.64 9.88797 420.168 9.88797 418.248V365.544C9.88797 363.688 9.34398 362.28 8.25601 361.32C7.16801 360.296 4.83201 359.784 1.248 359.784C0.416005 359.784 0 359.336 0 358.44C0 357.544 0.416005 357.096 1.248 357.096C1.824 357.096 3.45601 357.16 6.14401 357.288C8.89601 357.352 12.096 357.384 15.744 357.384C19.968 357.384 23.296 357.352 25.728 357.288C28.224 357.16 30.112 357.096 31.392 357.096C35.424 357.096 39.36 357.736 43.2 359.016C47.04 360.232 50.496 362.216 53.568 364.968C56.64 367.72 59.072 371.336 60.864 375.816C62.72 380.232 63.648 385.64 63.648 392.04C63.648 398.184 62.72 403.464 60.864 407.88C59.072 412.296 56.608 415.912 53.472 418.728C50.4 421.48 46.944 423.528 43.104 424.872C39.328 426.152 35.424 426.792 31.392 426.792C30.112 426.792 28.224 426.76 25.728 426.696C23.232 426.632 19.84 426.6 15.552 426.6C11.968 426.6 8.86401 426.632 6.24001 426.696C3.68001 426.76 2.08 426.792 1.44 426.792ZM23.52 423.816H29.184C31.808 423.816 34.368 423.336 36.864 422.376C39.36 421.352 41.632 419.656 43.68 417.288C45.728 414.856 47.36 411.592 48.576 407.496C49.792 403.4 50.4 398.248 50.4 392.04C50.4 385.576 49.856 380.264 48.768 376.104C47.744 371.944 46.304 368.712 44.448 366.408C42.592 364.04 40.48 362.408 38.112 361.512C35.808 360.552 33.376 360.072 30.816 360.072H23.52C23.072 360.072 22.624 360.2 22.176 360.456C21.792 360.648 21.6 361.192 21.6 362.088V421.896C21.6 423.304 22.24 423.944 23.52 423.816ZM81.0735 426.792C80.2415 426.792 79.8255 426.28 79.8255 425.256C79.8255 424.424 80.2415 424.008 81.0735 424.008C84.6575 424.008 87.0575 423.56 88.2735 422.664C89.5535 421.768 90.1935 420.264 90.1935 418.152V365.544C90.1935 363.624 89.6175 362.184 88.4655 361.224C87.3135 360.264 85.0095 359.784 81.5535 359.784C80.7215 359.784 80.3055 359.304 80.3055 358.344C80.3055 357.512 80.7215 357.096 81.5535 357.096C82.0655 357.096 84.4975 357.128 88.8495 357.192C93.2655 357.256 99.7299 357.288 108.242 357.288C116.306 357.288 122.418 357.256 126.578 357.192C130.738 357.128 133.106 357.096 133.682 357.096C135.154 357.096 135.922 357.832 135.986 359.304C136.114 359.88 136.21 360.84 136.274 362.184C136.338 363.464 136.402 364.84 136.466 366.312C136.53 367.784 136.562 369.096 136.562 370.248C136.626 371.4 136.658 372.136 136.658 372.456C136.658 372.712 136.594 373 136.466 373.32C136.338 373.576 136.05 373.704 135.602 373.704C135.154 373.704 134.802 373.672 134.546 373.608C134.354 373.48 134.162 373.192 133.97 372.744C133.202 371.016 132.21 369.192 130.994 367.272C129.842 365.288 128.274 363.592 126.29 362.184C124.37 360.776 121.842 360.072 118.706 360.072H103.826C103.25 360.072 102.77 360.2 102.386 360.456C102.002 360.712 101.81 361.256 101.81 362.088V388.392C101.81 388.648 101.938 388.936 102.194 389.256C102.45 389.512 102.738 389.64 103.058 389.64H107.954C110.642 389.64 112.69 389.064 114.098 387.912C115.506 386.76 116.53 385.416 117.17 383.88C117.874 382.344 118.45 381.032 118.898 379.944C119.09 379.432 119.25 379.08 119.378 378.888C119.57 378.632 119.922 378.504 120.434 378.504C120.882 378.504 121.17 378.664 121.298 378.984C121.49 379.304 121.586 379.624 121.586 379.944C121.586 380.456 121.554 381.384 121.49 382.728C121.49 384.008 121.458 385.416 121.394 386.952C121.394 388.488 121.394 389.896 121.394 391.176C121.394 392.392 121.394 393.864 121.394 395.592C121.458 397.256 121.49 398.792 121.49 400.2C121.554 401.544 121.586 402.44 121.586 402.888C121.586 403.848 121.202 404.328 120.434 404.328C119.73 404.328 119.25 403.912 118.994 403.08C118.546 401.864 117.97 400.456 117.266 398.856C116.562 397.192 115.506 395.752 114.098 394.536C112.69 393.256 110.642 392.616 107.954 392.616H103.058C102.226 392.616 101.81 393.096 101.81 394.056V421.8C101.81 423.016 102.45 423.624 103.73 423.624H116.69C119.762 423.624 122.354 423.08 124.466 421.992C126.578 420.84 128.306 419.432 129.65 417.768C131.058 416.04 132.146 414.344 132.914 412.68C133.682 410.952 134.258 409.512 134.642 408.36C134.834 407.784 135.026 407.464 135.218 407.4C135.474 407.336 135.826 407.336 136.274 407.4C136.338 407.4 136.37 407.4 136.37 407.4C136.882 407.464 137.17 407.624 137.234 407.88C137.298 408.136 137.33 408.424 137.33 408.744C137.33 409 137.298 409.8 137.234 411.144C137.234 412.488 137.202 414.056 137.138 415.848C137.138 417.576 137.106 419.208 137.042 420.744C137.042 422.216 137.042 423.24 137.042 423.816C137.042 424.648 136.786 425.352 136.274 425.928C135.826 426.504 135.154 426.792 134.258 426.792C133.81 426.792 132.818 426.76 131.282 426.696C129.746 426.632 127.218 426.6 123.698 426.6C120.178 426.536 115.25 426.504 108.914 426.504C101.106 426.504 94.6735 426.568 89.6175 426.696C84.6255 426.76 81.7775 426.792 81.0735 426.792ZM184.15 427.944C181.206 427.944 178.422 427.56 175.798 426.792C173.174 426.088 170.902 425.32 168.982 424.488C167.126 423.656 165.814 423.08 165.046 422.76C164.406 422.44 163.734 422.312 163.03 422.376C162.326 422.44 161.718 422.76 161.206 423.336C161.142 423.4 161.11 423.432 161.11 423.432C161.046 423.432 160.886 423.56 160.63 423.816C160.438 424.008 159.766 424.648 158.614 425.736C157.974 426.376 157.366 426.568 156.79 426.312C156.214 425.992 155.926 425.48 155.926 424.776V406.056C155.926 405.288 156.342 404.84 157.174 404.712C158.07 404.584 158.614 404.808 158.806 405.384C160.022 408.968 161.878 412.168 164.374 414.984C166.87 417.8 169.846 420.008 173.302 421.608C176.822 423.144 180.598 423.912 184.63 423.912C187.958 423.912 190.646 423.24 192.694 421.896C194.806 420.552 196.374 418.856 197.398 416.808C198.422 414.696 198.934 412.616 198.934 410.568C198.934 407.816 198.166 405.608 196.63 403.944C195.094 402.216 193.078 400.84 190.582 399.816C188.086 398.728 185.302 397.8 182.23 397.032C179.222 396.264 176.214 395.432 173.206 394.536C170.198 393.64 167.446 392.488 164.95 391.08C162.454 389.608 160.438 387.688 158.902 385.32C157.366 382.888 156.598 379.816 156.598 376.104C156.598 371.688 157.654 368.008 159.766 365.064C161.942 362.056 164.822 359.784 168.406 358.248C171.99 356.712 175.862 355.944 180.022 355.944C182.134 355.944 184.278 356.2 186.454 356.712C188.63 357.16 190.646 357.736 192.502 358.44C194.358 359.08 195.766 359.688 196.726 360.264C198.262 361.096 199.446 361.096 200.278 360.264C200.918 359.624 201.398 359.208 201.718 359.016C202.102 358.76 202.294 358.632 202.294 358.632C202.806 358.12 203.35 358.024 203.926 358.344C204.502 358.6 204.79 359.144 204.79 359.976V376.392C204.79 377.224 204.374 377.736 203.542 377.928C202.774 378.12 202.23 377.8 201.91 376.968C200.502 373.832 198.71 370.92 196.534 368.232C194.422 365.544 191.958 363.368 189.142 361.704C186.39 360.04 183.35 359.208 180.022 359.208C177.27 359.208 174.838 359.816 172.726 361.032C170.614 362.184 168.95 363.72 167.734 365.64C166.518 367.56 165.91 369.704 165.91 372.072C165.91 374.76 166.678 376.904 168.214 378.504C169.814 380.104 171.894 381.384 174.454 382.344C177.014 383.304 179.83 384.136 182.902 384.84C186.038 385.544 189.142 386.344 192.214 387.24C195.286 388.072 198.102 389.224 200.662 390.696C203.222 392.168 205.27 394.152 206.806 396.648C208.406 399.08 209.206 402.28 209.206 406.248C209.206 410.792 208.118 414.696 205.942 417.96C203.766 421.224 200.79 423.72 197.014 425.448C193.238 427.112 188.95 427.944 184.15 427.944ZM226.925 426.792C226.093 426.792 225.677 426.28 225.677 425.256C225.677 424.424 226.093 424.008 226.925 424.008C230.253 424.008 232.653 423.656 234.125 422.952C235.597 422.248 236.333 420.744 236.333 418.44V365.256C236.333 363.144 235.629 361.704 234.221 360.936C232.877 360.168 230.445 359.784 226.925 359.784C226.093 359.784 225.677 359.336 225.677 358.44C225.677 357.544 226.093 357.096 226.925 357.096C228.013 357.096 229.421 357.128 231.149 357.192C232.941 357.256 234.829 357.32 236.813 357.384C238.797 357.384 240.621 357.384 242.285 357.384C243.885 357.384 245.677 357.384 247.661 357.384C249.709 357.32 251.629 357.256 253.421 357.192C255.277 357.128 256.717 357.096 257.741 357.096C258.701 357.096 259.181 357.544 259.181 358.44C259.181 359.336 258.701 359.784 257.741 359.784C254.349 359.784 251.917 360.168 250.445 360.936C249.037 361.704 248.333 363.144 248.333 365.256V418.44C248.333 420.744 249.101 422.248 250.637 422.952C252.173 423.656 254.541 424.008 257.741 424.008C258.701 424.008 259.181 424.424 259.181 425.256C259.181 426.28 258.701 426.792 257.741 426.792C256.717 426.792 255.277 426.76 253.421 426.696C251.629 426.632 249.709 426.568 247.661 426.504C245.677 426.44 243.885 426.408 242.285 426.408C240.621 426.408 238.797 426.44 236.813 426.504C234.829 426.568 232.941 426.632 231.149 426.696C229.421 426.76 228.013 426.792 226.925 426.792ZM308.652 427.944C302.508 427.944 297.036 426.6 292.236 423.912C287.436 421.224 283.66 417.192 280.908 411.816C278.156 406.376 276.78 399.624 276.78 391.56C276.78 385.992 277.708 381.032 279.564 376.68C281.42 372.264 283.916 368.52 287.052 365.448C290.188 362.376 293.676 360.04 297.516 358.44C301.42 356.776 305.42 355.944 309.516 355.944C312.332 355.944 314.988 356.36 317.484 357.192C319.98 357.96 321.676 358.6 322.572 359.112C323.276 359.56 323.884 359.784 324.396 359.784C324.972 359.72 325.484 359.592 325.932 359.4C326.252 359.272 326.86 358.984 327.756 358.536C328.652 358.088 329.26 357.832 329.58 357.768C330.156 357.576 330.796 357.64 331.5 357.96C332.268 358.216 332.652 358.728 332.652 359.496V376.968C332.652 377.608 332.204 378.024 331.308 378.216C330.476 378.344 329.932 378.12 329.676 377.544C328.204 374.536 326.54 371.656 324.684 368.904C322.828 366.088 320.684 363.784 318.252 361.992C315.82 360.2 312.908 359.304 309.516 359.304C307.148 359.304 304.812 359.88 302.508 361.032C300.268 362.12 298.22 363.944 296.364 366.504C294.508 369 293.004 372.328 291.852 376.488C290.764 380.584 290.22 385.608 290.22 391.56C290.22 399.816 291.02 406.344 292.62 411.144C294.22 415.944 296.428 419.368 299.244 421.416C302.06 423.4 305.26 424.392 308.844 424.392C314.092 424.392 317.772 422.952 319.884 420.072C321.996 417.128 323.052 413.352 323.052 408.744V404.52C323.052 402.856 322.636 401.576 321.804 400.68C320.972 399.784 319.116 399.336 316.236 399.336C315.788 399.336 315.436 399.208 315.18 398.952C314.924 398.632 314.796 398.312 314.796 397.992C314.796 397.032 315.276 396.552 316.236 396.552C316.684 396.552 317.58 396.584 318.924 396.648C320.332 396.712 321.9 396.776 323.628 396.84C325.42 396.904 327.116 396.936 328.716 396.936C331.148 396.936 333.58 396.872 336.012 396.744C338.444 396.616 340.076 396.552 340.908 396.552C341.356 396.552 341.74 396.68 342.06 396.936C342.444 397.192 342.636 397.544 342.636 397.992C342.636 398.376 342.444 398.696 342.06 398.952C341.74 399.208 341.356 399.336 340.908 399.336C339.116 399.336 337.644 399.688 336.492 400.392C335.34 401.032 334.764 402.504 334.764 404.808C334.764 410.248 334.86 414.792 335.052 418.44C335.244 422.024 335.34 424.04 335.34 424.488C335.34 425.192 334.956 425.64 334.188 425.832C333.484 425.96 332.972 425.832 332.652 425.448C332.396 425.128 331.948 424.584 331.308 423.816C330.732 422.984 330.156 422.216 329.58 421.512C329.068 420.744 328.748 420.328 328.62 420.264C327.788 419.432 327.02 419.4 326.316 420.168C324.652 422.152 322.348 423.944 319.404 425.544C316.46 427.144 312.876 427.944 308.652 427.944ZM414.87 427.08C414.614 427.08 414.39 427.08 414.198 427.08C414.006 427.08 413.814 427.08 413.622 427.08C412.406 427.144 411.478 427.112 410.838 426.984C410.198 426.856 409.622 426.312 409.11 425.352C408.342 424.008 407.158 422.024 405.558 419.4C403.958 416.712 402.07 413.64 399.894 410.184C397.718 406.664 395.414 402.984 392.982 399.144C390.614 395.304 388.246 391.528 385.878 387.816C383.574 384.104 381.43 380.712 379.446 377.64C377.462 374.504 375.798 371.912 374.454 369.864C373.11 367.752 372.278 366.44 371.958 365.928C371.894 365.8 371.734 365.768 371.478 365.832C371.286 365.832 371.19 365.992 371.19 366.312V411.048C371.19 415.912 372.118 419.304 373.974 421.224C375.894 423.08 378.134 424.008 380.694 424.008C381.014 424.008 381.302 424.136 381.558 424.392C381.878 424.584 382.038 424.904 382.038 425.352C382.038 425.8 381.878 426.152 381.558 426.408C381.302 426.664 381.014 426.792 380.694 426.792C380.054 426.792 378.742 426.76 376.758 426.696C374.774 426.568 372.374 426.504 369.558 426.504C366.23 426.504 363.702 426.568 361.974 426.696C360.31 426.76 359.126 426.792 358.422 426.792C357.59 426.792 357.174 426.312 357.174 425.352C357.174 424.456 357.59 424.008 358.422 424.008C361.11 424.008 363.286 423.048 364.95 421.128C366.678 419.208 367.542 415.88 367.542 411.144V366.408C367.542 364.104 367.03 362.44 366.006 361.416C364.982 360.328 363.158 359.784 360.534 359.784C359.702 359.784 359.286 359.304 359.286 358.344C359.286 357.512 359.702 357.096 360.534 357.096C361.046 357.096 362.742 357.128 365.622 357.192C368.566 357.256 372.406 357.288 377.142 357.288C378.23 357.288 379.03 357.448 379.542 357.768C380.054 358.088 380.534 358.632 380.982 359.4C381.238 359.848 382.006 361.064 383.286 363.048C384.566 365.032 386.166 367.528 388.086 370.536C390.006 373.48 392.086 376.68 394.326 380.136C396.566 383.592 398.806 387.048 401.046 390.504C403.286 393.96 405.334 397.16 407.19 400.104C409.11 403.048 410.678 405.48 411.894 407.4C413.174 409.256 413.91 410.344 414.102 410.664C414.486 411.24 414.838 411.432 415.158 411.24C415.542 411.048 415.734 410.696 415.734 410.184V372.84C415.734 368.168 414.838 364.84 413.046 362.856C411.318 360.808 408.918 359.784 405.846 359.784C405.014 359.784 404.598 359.304 404.598 358.344C404.598 357.512 405.014 357.096 405.846 357.096C406.55 357.096 407.926 357.16 409.974 357.288C412.022 357.352 414.454 357.384 417.27 357.384C420.022 357.384 422.39 357.352 424.374 357.288C426.358 357.16 427.67 357.096 428.31 357.096C429.27 357.096 429.75 357.512 429.75 358.344C429.75 359.304 429.27 359.784 428.31 359.784C425.878 359.784 423.766 360.776 421.974 362.76C420.246 364.68 419.382 368.04 419.382 372.84V409.32C419.382 412.712 419.51 415.592 419.766 417.96C420.022 420.264 420.214 422.44 420.342 424.488C420.406 425.192 420.15 425.8 419.574 426.312C419.062 426.76 417.494 427.016 414.87 427.08Z" fill="#DBAC34"/>
</svg>
