<svg width="431" height="429" viewBox="0 0 431 429" fill="none" xmlns="http://www.w3.org/2000/svg">
<path d="M17.9062 71.056C12.8502 71.056 8.88219 69.776 6.00219 67.216C3.18619 64.592 1.77819 61.328 1.77819 57.424C1.77819 55.184 2.35419 53.264 3.50619 51.664C4.72219 50.064 6.51419 49.264 8.88219 49.264C10.7382 49.264 12.2742 49.872 13.4902 51.088C14.7702 52.304 15.4102 53.808 15.4102 55.6C15.4102 56.88 15.0902 57.808 14.4502 58.384C13.8742 58.96 13.2022 59.408 12.4342 59.728C11.6662 59.984 10.9622 60.304 10.3222 60.688C9.74619 61.008 9.45819 61.584 9.45819 62.416C9.45819 63.632 10.1302 64.656 11.4742 65.488C12.8822 66.32 14.7702 66.736 17.1382 66.736C20.9782 66.736 23.6662 65.392 25.2022 62.704C26.8022 59.952 27.6022 55.888 27.6022 50.512V8.656C27.6022 6.73601 27.0582 5.29601 25.9702 4.33601C24.9462 3.37601 23.0582 2.896 20.3062 2.896C19.3462 2.896 18.8662 2.48001 18.8662 1.64801C18.8662 0.68801 19.3462 0.208008 20.3062 0.208008C20.5622 0.208008 21.2342 0.24001 22.3222 0.304013C23.4102 0.304013 24.6582 0.336013 26.0662 0.400012C27.5382 0.400012 28.9142 0.432011 30.1942 0.49601C31.5382 0.49601 32.5942 0.49601 33.3622 0.49601C34.1302 0.49601 35.1862 0.49601 36.5302 0.49601C37.8742 0.432011 39.2822 0.400012 40.7542 0.400012C42.2262 0.336013 43.5062 0.304013 44.5942 0.304013C45.7462 0.24001 46.4502 0.208008 46.7062 0.208008C47.5382 0.208008 47.9542 0.68801 47.9542 1.64801C47.9542 1.90401 47.8582 2.19201 47.6662 2.51201C47.4742 2.76801 47.1542 2.896 46.7062 2.896C43.9542 2.896 42.0022 3.37601 40.8502 4.33601C39.7622 5.23201 39.2182 6.67201 39.2182 8.656V50.032C39.2182 54.96 38.2902 58.992 36.4342 62.128C34.6422 65.2 32.1462 67.472 28.9462 68.944C25.7462 70.352 22.0662 71.056 17.9062 71.056ZM78.0727 70C77.2407 70 76.8247 69.488 76.8247 68.464C76.8247 67.632 77.2407 67.216 78.0727 67.216C81.6567 67.216 84.0567 66.768 85.2727 65.872C86.5527 64.976 87.1927 63.472 87.1927 61.36V8.75201C87.1927 6.83201 86.6167 5.39201 85.4647 4.43201C84.3127 3.47201 82.0087 2.99201 78.5527 2.99201C77.7207 2.99201 77.3047 2.51201 77.3047 1.552C77.3047 0.720011 77.7207 0.304013 78.5527 0.304013C79.0647 0.304013 81.4967 0.336013 85.8487 0.400012C90.2647 0.464011 96.7287 0.49601 105.241 0.49601C113.305 0.49601 119.417 0.464011 123.577 0.400012C127.737 0.336013 130.105 0.304013 130.681 0.304013C132.153 0.304013 132.921 1.04001 132.985 2.51201C133.113 3.08801 133.209 4.04801 133.273 5.39201C133.337 6.67201 133.401 8.048 133.465 9.52C133.529 10.992 133.561 12.304 133.561 13.456C133.625 14.608 133.657 15.344 133.657 15.664C133.657 15.92 133.593 16.208 133.465 16.528C133.337 16.784 133.049 16.912 132.601 16.912C132.153 16.912 131.801 16.88 131.545 16.816C131.353 16.688 131.161 16.4 130.969 15.952C130.201 14.224 129.209 12.4 127.993 10.48C126.841 8.49601 125.273 6.80001 123.289 5.39201C121.369 3.98401 118.841 3.28 115.705 3.28H100.825C100.249 3.28 99.7687 3.40801 99.3847 3.66401C99.0007 3.92001 98.8087 4.46401 98.8087 5.29601V31.6C98.8087 31.856 98.9367 32.144 99.1927 32.464C99.4487 32.72 99.7367 32.848 100.057 32.848H104.953C107.641 32.848 109.689 32.272 111.097 31.12C112.505 29.968 113.529 28.624 114.169 27.088C114.873 25.552 115.449 24.24 115.897 23.152C116.089 22.64 116.249 22.288 116.377 22.096C116.569 21.84 116.921 21.712 117.433 21.712C117.881 21.712 118.169 21.872 118.297 22.192C118.489 22.512 118.585 22.832 118.585 23.152C118.585 23.664 118.553 24.592 118.489 25.936C118.489 27.216 118.457 28.624 118.393 30.16C118.393 31.696 118.393 33.104 118.393 34.384C118.393 35.6 118.393 37.072 118.393 38.8C118.457 40.464 118.489 42 118.489 43.408C118.553 44.752 118.585 45.648 118.585 46.096C118.585 47.056 118.201 47.536 117.433 47.536C116.729 47.536 116.249 47.12 115.993 46.288C115.545 45.072 114.969 43.664 114.265 42.064C113.561 40.4 112.505 38.96 111.097 37.744C109.689 36.464 107.641 35.824 104.953 35.824H100.057C99.2247 35.824 98.8087 36.304 98.8087 37.264V65.008C98.8087 66.224 99.4487 66.832 100.729 66.832H113.689C116.761 66.832 119.353 66.288 121.465 65.2C123.577 64.048 125.305 62.64 126.649 60.976C128.057 59.248 129.145 57.552 129.913 55.888C130.681 54.16 131.257 52.72 131.641 51.568C131.833 50.992 132.025 50.672 132.217 50.608C132.473 50.544 132.825 50.544 133.273 50.608C133.337 50.608 133.369 50.608 133.369 50.608C133.881 50.672 134.169 50.832 134.233 51.088C134.297 51.344 134.329 51.632 134.329 51.952C134.329 52.208 134.297 53.008 134.233 54.352C134.233 55.696 134.201 57.264 134.137 59.056C134.137 60.784 134.105 62.416 134.041 63.952C134.041 65.424 134.041 66.448 134.041 67.024C134.041 67.856 133.785 68.56 133.273 69.136C132.825 69.712 132.153 70 131.257 70C130.809 70 129.817 69.968 128.281 69.904C126.745 69.84 124.217 69.808 120.697 69.808C117.177 69.744 112.249 69.712 105.913 69.712C98.1047 69.712 91.6727 69.776 86.6167 69.904C81.6247 69.968 78.7767 70 78.0727 70ZM220.893 70.288C220.637 70.288 220.413 70.288 220.221 70.288C220.029 70.288 219.837 70.288 219.645 70.288C218.429 70.352 217.501 70.32 216.861 70.192C216.221 70.064 215.645 69.52 215.133 68.56C214.365 67.216 213.181 65.232 211.581 62.608C209.981 59.92 208.093 56.848 205.917 53.392C203.741 49.872 201.437 46.192 199.005 42.352C196.637 38.512 194.269 34.736 191.901 31.024C189.597 27.312 187.453 23.92 185.469 20.848C183.485 17.712 181.821 15.12 180.477 13.072C179.133 10.96 178.301 9.64801 177.981 9.13601C177.917 9.00801 177.757 8.97601 177.501 9.04001C177.309 9.04001 177.213 9.20001 177.213 9.52V54.256C177.213 59.12 178.141 62.512 179.997 64.432C181.917 66.288 184.157 67.216 186.717 67.216C187.037 67.216 187.325 67.344 187.581 67.6C187.901 67.792 188.061 68.112 188.061 68.56C188.061 69.008 187.901 69.36 187.581 69.616C187.325 69.872 187.037 70 186.717 70C186.077 70 184.765 69.968 182.781 69.904C180.797 69.776 178.397 69.712 175.581 69.712C172.253 69.712 169.725 69.776 167.997 69.904C166.333 69.968 165.149 70 164.445 70C163.613 70 163.197 69.52 163.197 68.56C163.197 67.664 163.613 67.216 164.445 67.216C167.133 67.216 169.309 66.256 170.973 64.336C172.701 62.416 173.565 59.088 173.565 54.352V9.61601C173.565 7.31201 173.053 5.64801 172.029 4.624C171.005 3.53601 169.181 2.99201 166.557 2.99201C165.725 2.99201 165.309 2.51201 165.309 1.552C165.309 0.720011 165.725 0.304013 166.557 0.304013C167.069 0.304013 168.765 0.336013 171.645 0.400012C174.589 0.464011 178.429 0.49601 183.165 0.49601C184.253 0.49601 185.053 0.65601 185.565 0.97601C186.077 1.29601 186.557 1.84001 187.005 2.60801C187.261 3.05601 188.029 4.27201 189.309 6.25601C190.589 8.24001 192.189 10.736 194.109 13.744C196.029 16.688 198.109 19.888 200.349 23.344C202.589 26.8 204.829 30.256 207.069 33.712C209.309 37.168 211.357 40.368 213.213 43.312C215.133 46.256 216.701 48.688 217.917 50.608C219.197 52.464 219.933 53.552 220.125 53.872C220.509 54.448 220.861 54.64 221.181 54.448C221.565 54.256 221.757 53.904 221.757 53.392V16.048C221.757 11.376 220.861 8.04801 219.069 6.06401C217.341 4.01601 214.941 2.99201 211.869 2.99201C211.037 2.99201 210.621 2.51201 210.621 1.552C210.621 0.720011 211.037 0.304013 211.869 0.304013C212.573 0.304013 213.949 0.368012 215.997 0.49601C218.045 0.56001 220.477 0.592009 223.293 0.592009C226.045 0.592009 228.413 0.56001 230.397 0.49601C232.381 0.368012 233.693 0.304013 234.333 0.304013C235.293 0.304013 235.773 0.720011 235.773 1.552C235.773 2.51201 235.293 2.99201 234.333 2.99201C231.901 2.99201 229.789 3.98401 227.997 5.968C226.269 7.88801 225.405 11.248 225.405 16.048V52.528C225.405 55.92 225.533 58.8 225.789 61.168C226.045 63.472 226.237 65.648 226.365 67.696C226.429 68.4 226.173 69.008 225.597 69.52C225.085 69.968 223.517 70.224 220.893 70.288ZM320.317 70.288C320.061 70.288 319.837 70.288 319.645 70.288C319.453 70.288 319.261 70.288 319.069 70.288C317.853 70.352 316.925 70.32 316.285 70.192C315.645 70.064 315.069 69.52 314.557 68.56C313.789 67.216 312.605 65.232 311.005 62.608C309.405 59.92 307.517 56.848 305.341 53.392C303.165 49.872 300.861 46.192 298.429 42.352C296.061 38.512 293.693 34.736 291.325 31.024C289.021 27.312 286.877 23.92 284.893 20.848C282.909 17.712 281.245 15.12 279.901 13.072C278.557 10.96 277.725 9.64801 277.405 9.13601C277.341 9.00801 277.181 8.97601 276.925 9.04001C276.733 9.04001 276.637 9.20001 276.637 9.52V54.256C276.637 59.12 277.565 62.512 279.421 64.432C281.341 66.288 283.581 67.216 286.141 67.216C286.461 67.216 286.749 67.344 287.005 67.6C287.325 67.792 287.485 68.112 287.485 68.56C287.485 69.008 287.325 69.36 287.005 69.616C286.749 69.872 286.461 70 286.141 70C285.501 70 284.189 69.968 282.205 69.904C280.221 69.776 277.821 69.712 275.005 69.712C271.677 69.712 269.149 69.776 267.421 69.904C265.757 69.968 264.573 70 263.869 70C263.037 70 262.621 69.52 262.621 68.56C262.621 67.664 263.037 67.216 263.869 67.216C266.557 67.216 268.733 66.256 270.397 64.336C272.125 62.416 272.989 59.088 272.989 54.352V9.61601C272.989 7.31201 272.477 5.64801 271.453 4.624C270.429 3.53601 268.605 2.99201 265.981 2.99201C265.149 2.99201 264.733 2.51201 264.733 1.552C264.733 0.720011 265.149 0.304013 265.981 0.304013C266.493 0.304013 268.189 0.336013 271.069 0.400012C274.013 0.464011 277.853 0.49601 282.589 0.49601C283.677 0.49601 284.477 0.65601 284.989 0.97601C285.501 1.29601 285.981 1.84001 286.429 2.60801C286.685 3.05601 287.453 4.27201 288.733 6.25601C290.013 8.24001 291.613 10.736 293.533 13.744C295.453 16.688 297.533 19.888 299.773 23.344C302.013 26.8 304.253 30.256 306.493 33.712C308.733 37.168 310.781 40.368 312.637 43.312C314.557 46.256 316.125 48.688 317.341 50.608C318.621 52.464 319.357 53.552 319.549 53.872C319.933 54.448 320.285 54.64 320.605 54.448C320.989 54.256 321.181 53.904 321.181 53.392V16.048C321.181 11.376 320.285 8.04801 318.493 6.06401C316.765 4.01601 314.365 2.99201 311.293 2.99201C310.461 2.99201 310.045 2.51201 310.045 1.552C310.045 0.720011 310.461 0.304013 311.293 0.304013C311.997 0.304013 313.373 0.368012 315.421 0.49601C317.469 0.56001 319.901 0.592009 322.717 0.592009C325.469 0.592009 327.837 0.56001 329.821 0.49601C331.805 0.368012 333.117 0.304013 333.757 0.304013C334.717 0.304013 335.197 0.720011 335.197 1.552C335.197 2.51201 334.717 2.99201 333.757 2.99201C331.325 2.99201 329.213 3.98401 327.421 5.968C325.693 7.88801 324.829 11.248 324.829 16.048V52.528C324.829 55.92 324.957 58.8 325.213 61.168C325.469 63.472 325.661 65.648 325.789 67.696C325.853 68.4 325.597 69.008 325.021 69.52C324.509 69.968 322.941 70.224 320.317 70.288ZM381.436 70C380.54 70 380.092 69.584 380.092 68.752C380.092 67.728 380.54 67.216 381.436 67.216C384.252 67.216 386.332 66.896 387.676 66.256C389.084 65.552 389.788 64.112 389.788 61.936V43.024C389.788 42.064 389.756 41.328 389.692 40.816C389.628 40.304 389.34 39.632 388.828 38.8C388.508 38.288 387.9 37.232 387.004 35.632C386.108 34.032 385.052 32.144 383.836 29.968C382.62 27.792 381.34 25.552 379.996 23.248C378.652 20.88 377.372 18.608 376.156 16.432C374.94 14.256 373.884 12.432 372.988 10.96C371.708 8.72001 370.588 7.05601 369.628 5.968C368.732 4.816 367.772 4.048 366.748 3.66401C365.788 3.28001 364.508 3.08801 362.908 3.08801C362.076 3.08801 361.66 2.60801 361.66 1.64801C361.66 0.752013 362.076 0.304013 362.908 0.304013C363.612 0.304013 365.02 0.368012 367.132 0.49601C369.244 0.56001 371.484 0.592009 373.852 0.592009C375.772 0.592009 377.82 0.592009 379.996 0.592009C382.236 0.52801 384.188 0.464011 385.852 0.400012C387.58 0.336013 388.572 0.304013 388.828 0.304013C389.788 0.304013 390.268 0.752013 390.268 1.64801C390.268 2.60801 389.788 3.08801 388.828 3.08801C386.78 3.08801 385.372 3.56801 384.604 4.52801C383.9 5.48801 384.06 6.92801 385.084 8.84801C385.98 10.64 387.132 12.848 388.54 15.472C389.948 18.096 391.356 20.784 392.764 23.536C394.236 26.288 395.548 28.752 396.7 30.928C397.916 33.04 398.748 34.48 399.196 35.248C399.388 35.568 399.548 35.76 399.676 35.824C399.868 35.824 400.092 35.6 400.348 35.152C400.988 34.128 401.916 32.56 403.132 30.448C404.348 28.336 405.66 26.064 407.068 23.632C408.476 21.136 409.756 18.768 410.908 16.528C412.124 14.288 413.02 12.528 413.596 11.248C414.556 9.00801 414.364 7.08801 413.02 5.48801C411.676 3.88801 409.5 3.08801 406.492 3.08801C405.66 3.08801 405.244 2.60801 405.244 1.64801C405.244 0.752013 405.66 0.304013 406.492 0.304013C407.196 0.304013 408.604 0.368012 410.716 0.49601C412.828 0.56001 415.388 0.592009 418.396 0.592009C421.212 0.592009 423.548 0.56001 425.404 0.49601C427.324 0.368012 428.604 0.304013 429.244 0.304013C430.204 0.304013 430.684 0.752013 430.684 1.64801C430.684 2.60801 430.204 3.08801 429.244 3.08801C426.748 3.08801 424.54 3.92001 422.62 5.58401C420.764 7.24801 419.004 9.48801 417.34 12.304C416.892 13.008 416.124 14.32 415.036 16.24C413.948 18.16 412.668 20.4 411.196 22.96C409.788 25.52 408.348 28.144 406.876 30.832C405.404 33.456 404.092 35.888 402.94 38.128C402.556 38.832 402.236 39.568 401.98 40.336C401.724 41.04 401.596 41.872 401.596 42.832V61.936C401.596 64.176 402.172 65.616 403.324 66.256C404.54 66.896 406.428 67.216 408.988 67.216C409.884 67.216 410.332 67.728 410.332 68.752C410.332 69.584 409.884 70 408.988 70C408.156 70 406.716 69.936 404.668 69.808C402.684 69.68 399.708 69.616 395.74 69.616C391.964 69.616 388.86 69.68 386.428 69.808C383.996 69.936 382.332 70 381.436 70ZM2.36545 189C1.53345 189 1.11745 188.488 1.11745 187.464C1.11745 186.632 1.53345 186.216 2.36545 186.216C5.11745 186.216 7.00545 185.8 8.02945 184.968C9.05345 184.072 9.56545 182.536 9.56545 180.36V127.752C9.56545 125.896 9.14945 124.488 8.31745 123.528C7.48545 122.504 5.69345 121.992 2.94145 121.992C1.98145 121.992 1.50145 121.544 1.50145 120.648C1.50145 119.752 1.98145 119.304 2.94145 119.304C3.19745 119.304 3.83745 119.336 4.86145 119.4C5.88545 119.4 7.06945 119.4 8.41345 119.4C9.75745 119.4 11.0695 119.432 12.3495 119.496C13.6295 119.496 14.6535 119.496 15.4215 119.496C16.1895 119.496 17.2135 119.496 18.4935 119.496C19.7735 119.432 21.0855 119.4 22.4295 119.4C23.7735 119.4 24.9575 119.4 25.9815 119.4C27.0055 119.336 27.6455 119.304 27.9015 119.304C28.7975 119.304 29.2455 119.752 29.2455 120.648C29.2455 121.544 28.7975 121.992 27.9015 121.992C25.1495 121.992 23.3575 122.504 22.5255 123.528C21.6935 124.488 21.2775 125.896 21.2775 127.752V150.984C21.2775 152.456 21.8215 152.616 22.9095 151.464C23.3575 151.016 24.1895 150.184 25.4055 148.968C26.6215 147.752 28.0295 146.344 29.6295 144.744C31.2295 143.08 32.8295 141.416 34.4295 139.752C36.0935 138.024 37.5655 136.456 38.8455 135.048C40.1895 133.576 41.1815 132.424 41.8215 131.592C42.7175 130.312 43.4535 129.224 44.0295 128.328C44.6695 127.368 44.9895 126.472 44.9895 125.64C44.9895 124.744 44.5095 123.912 43.5495 123.144C42.6535 122.376 41.3735 121.992 39.7095 121.992C38.8775 121.992 38.4615 121.544 38.4615 120.648C38.4615 119.752 38.8775 119.304 39.7095 119.304C40.4135 119.304 41.7255 119.336 43.6455 119.4C45.5655 119.464 48.1895 119.496 51.5175 119.496C54.7175 119.496 57.2775 119.464 59.1975 119.4C61.1815 119.336 62.4935 119.304 63.1335 119.304C64.0935 119.304 64.5735 119.752 64.5735 120.648C64.5735 121.544 64.0935 121.992 63.1335 121.992C61.7255 121.992 59.9655 122.568 57.8535 123.72C55.8055 124.808 53.6935 126.184 51.5175 127.848C49.3415 129.512 47.3255 131.24 45.4695 133.032C44.7015 133.8 43.5815 134.92 42.1095 136.392C40.7015 137.864 38.8775 139.72 36.6375 141.96C35.6775 142.92 35.5815 144.008 36.3495 145.224C36.7975 145.928 37.6615 147.4 38.9415 149.64C40.2215 151.88 41.6935 154.504 43.3575 157.512C45.0215 160.456 46.7175 163.464 48.4455 166.536C50.1735 169.608 51.7415 172.424 53.1495 174.984C54.5575 177.48 55.6455 179.336 56.4135 180.552C57.5655 182.344 58.4935 183.656 59.1975 184.488C59.9655 185.256 60.7335 185.736 61.5015 185.928C62.2695 186.12 63.2295 186.216 64.3815 186.216C65.2775 186.216 65.7255 186.632 65.7255 187.464C65.7255 188.488 65.2775 189 64.3815 189C63.7415 189 62.4295 188.968 60.4455 188.904C58.4615 188.776 55.8375 188.712 52.5735 188.712C50.7175 188.712 48.8615 188.744 47.0055 188.808C45.2135 188.808 43.6455 188.84 42.3015 188.904C41.0215 188.968 40.1575 189 39.7095 189C38.8775 189 38.4615 188.488 38.4615 187.464C38.4615 186.632 38.8775 186.216 39.7095 186.216C42.8455 186.216 44.4135 185.608 44.4135 184.392C44.4135 184.2 44.2215 183.752 43.8375 183.048C43.5175 182.28 43.1015 181.384 42.5895 180.36C42.1415 179.528 41.4375 178.248 40.4775 176.52C39.5815 174.728 38.5575 172.744 37.4055 170.568C36.2535 168.392 35.0695 166.216 33.8535 164.04C32.7015 161.8 31.6775 159.816 30.7815 158.088C29.8855 156.36 29.2455 155.112 28.8615 154.344C28.2215 153.064 27.6135 152.424 27.0375 152.424C26.4615 152.36 25.8215 152.712 25.1175 153.48C24.4775 154.12 24.0295 154.568 23.7735 154.824C23.5815 155.08 23.4215 155.272 23.2935 155.4C23.2295 155.528 23.0055 155.784 22.6215 156.168C22.0455 156.744 21.6615 157.384 21.4695 158.088C21.3415 158.792 21.2775 159.464 21.2775 160.104V180.36C21.2775 182.408 21.7255 183.912 22.6215 184.872C23.5815 185.768 25.5015 186.216 28.3815 186.216C28.7655 186.216 29.0855 186.344 29.3415 186.6C29.5975 186.856 29.7255 187.144 29.7255 187.464C29.7255 188.488 29.2775 189 28.3815 189C28.0615 189 27.3575 189 26.2695 189C25.1815 188.936 23.9335 188.904 22.5255 188.904C21.1815 188.84 19.8375 188.808 18.4935 188.808C17.2135 188.744 16.1895 188.712 15.4215 188.712C14.6535 188.712 13.5975 188.744 12.2535 188.808C10.9735 188.808 9.62945 188.84 8.22145 188.904C6.81345 188.904 5.56545 188.936 4.47745 189C3.38945 189 2.68545 189 2.36545 189ZM73.2967 189C72.4647 189 72.0487 188.584 72.0487 187.752C72.0487 186.728 72.4647 186.216 73.2967 186.216C75.5367 186.216 77.2967 185.832 78.5767 185.064C79.8567 184.232 81.0087 182.696 82.0327 180.456C82.5447 179.432 83.2807 177.704 84.2407 175.272C85.2647 172.84 86.4167 169.928 87.6967 166.536C89.0407 163.144 90.4487 159.528 91.9207 155.688C93.3927 151.848 94.8647 148.008 96.3367 144.168C97.8087 140.328 99.1527 136.776 100.369 133.512C101.649 130.184 102.705 127.336 103.537 124.968C104.433 122.6 105.041 121 105.361 120.168C105.681 119.336 106.033 118.792 106.417 118.536C106.865 118.28 107.601 118.152 108.625 118.152C109.649 118.152 110.385 118.28 110.833 118.536C111.281 118.792 111.665 119.336 111.985 120.168C112.497 121.448 113.297 123.528 114.385 126.408C115.537 129.288 116.849 132.616 118.321 136.392C119.793 140.168 121.329 144.136 122.929 148.296C124.529 152.392 126.065 156.392 127.537 160.296C129.073 164.2 130.449 167.752 131.665 170.952C132.881 174.088 133.841 176.52 134.545 178.248C135.697 181.192 136.913 183.272 138.193 184.488C139.537 185.64 140.817 186.216 142.033 186.216C142.865 186.216 143.281 186.728 143.281 187.752C143.281 188.584 142.865 189 142.033 189C141.393 189 140.081 189 138.097 189C136.113 188.936 133.457 188.904 130.129 188.904C127.377 188.904 124.753 188.936 122.257 189C119.761 189 118.193 189 117.553 189C116.721 189 116.305 188.584 116.305 187.752C116.305 186.728 116.721 186.216 117.553 186.216C119.601 186.216 121.009 185.896 121.777 185.256C122.609 184.552 123.025 183.752 123.025 182.856C123.025 181.896 122.865 181.096 122.545 180.456C122.481 180.328 122.289 179.784 121.969 178.824C121.649 177.8 121.233 176.584 120.721 175.176C120.273 173.704 119.793 172.232 119.281 170.76C118.769 169.224 118.321 167.88 117.937 166.728C117.681 166.024 117.425 165.608 117.169 165.48C116.913 165.352 116.561 165.288 116.113 165.288H92.4967C92.1767 165.288 91.9207 165.32 91.7287 165.384C91.5367 165.448 91.3767 165.704 91.2487 166.152C90.9287 167.496 90.4487 169.096 89.8087 170.952C89.2327 172.744 88.7207 174.504 88.2727 176.232C87.8247 177.896 87.6007 179.272 87.6007 180.36C87.6007 182.728 88.1767 184.296 89.3287 185.064C90.5447 185.832 92.2087 186.216 94.3207 186.216C95.1527 186.216 95.5687 186.728 95.5687 187.752C95.5687 188.584 95.1527 189 94.3207 189C93.6807 189 92.4647 189 90.6727 189C88.9447 188.936 86.6727 188.904 83.8567 188.904C81.3607 188.904 79.1527 188.936 77.2327 189C75.3127 189 74.0007 189 73.2967 189ZM93.9367 162.12H114.769C115.025 162.12 115.281 162.088 115.537 162.024C115.857 161.896 115.921 161.512 115.729 160.872C115.217 159.336 114.577 157.48 113.809 155.304C113.041 153.064 112.209 150.728 111.313 148.296C110.417 145.864 109.553 143.528 108.721 141.288C107.953 139.048 107.249 137.096 106.609 135.432C106.033 133.768 105.649 132.648 105.457 132.072C105.329 131.752 105.137 131.56 104.881 131.496C104.689 131.432 104.529 131.56 104.401 131.88C104.273 132.328 103.857 133.448 103.153 135.24C102.449 136.968 101.585 139.08 100.561 141.576C99.6007 144.008 98.6087 146.536 97.5847 149.16C96.5607 151.72 95.6327 154.056 94.8007 156.168C94.0327 158.216 93.4887 159.72 93.1687 160.68C92.9127 161.64 93.1687 162.12 93.9367 162.12ZM107.473 117C105.105 117 103.057 116.168 101.329 114.504C99.6647 112.776 98.8327 110.728 98.8327 108.36C98.8327 105.928 99.6647 103.88 101.329 102.216C103.057 100.552 105.105 99.72 107.473 99.72C109.905 99.72 111.953 100.552 113.617 102.216C115.281 103.88 116.113 105.928 116.113 108.36C116.113 110.728 115.281 112.776 113.617 114.504C111.953 116.168 109.905 117 107.473 117ZM107.473 112.776C108.753 112.776 109.809 112.36 110.641 111.528C111.473 110.632 111.889 109.576 111.889 108.36C111.889 107.08 111.473 106.024 110.641 105.192C109.809 104.36 108.753 103.944 107.473 103.944C106.257 103.944 105.201 104.36 104.305 105.192C103.473 106.024 103.057 107.08 103.057 108.36C103.057 109.576 103.473 110.632 104.305 111.528C105.201 112.36 106.257 112.776 107.473 112.776ZM151.867 189C150.971 189 150.523 188.552 150.523 187.656C150.523 186.76 150.971 186.312 151.867 186.312C155.195 186.312 157.435 185.832 158.587 184.872C159.739 183.848 160.315 182.376 160.315 180.456V127.752C160.315 125.832 159.739 124.392 158.587 123.432C157.499 122.472 155.195 121.992 151.675 121.992C150.843 121.992 150.427 121.544 150.427 120.648C150.427 119.752 150.843 119.304 151.675 119.304C152.251 119.304 153.883 119.368 156.571 119.496C159.323 119.56 162.523 119.592 166.171 119.592C172.891 119.592 178.363 119.56 182.587 119.496C186.811 119.368 189.595 119.304 190.939 119.304C194.715 119.304 197.979 119.976 200.731 121.32C203.547 122.664 205.723 124.52 207.259 126.888C208.795 129.192 209.563 131.848 209.563 134.856C209.563 137.992 208.891 140.648 207.547 142.824C206.267 145 204.603 146.792 202.555 148.2C200.507 149.544 198.363 150.632 196.123 151.464C195.483 151.72 195.163 152.008 195.163 152.328C195.163 152.648 195.451 152.872 196.027 153C197.755 153.256 199.547 153.736 201.403 154.44C203.323 155.144 205.115 156.168 206.779 157.512C208.443 158.792 209.787 160.456 210.811 162.504C211.899 164.488 212.443 166.92 212.443 169.8C212.443 174.024 211.387 177.576 209.275 180.456C207.163 183.272 204.219 185.416 200.443 186.888C196.731 188.296 192.379 189 187.387 189C186.683 189 185.915 189 185.083 189C184.251 188.936 183.099 188.904 181.627 188.904C180.219 188.904 178.267 188.904 175.771 188.904C173.275 188.84 170.011 188.808 165.979 188.808C162.267 188.808 159.131 188.84 156.571 188.904C154.075 188.968 152.507 189 151.867 189ZM174.139 186.12H184.219C189.339 186.12 193.083 184.584 195.451 181.512C197.883 178.44 199.099 174.536 199.099 169.8C199.099 165.384 197.819 161.704 195.259 158.76C192.763 155.752 188.795 154.248 183.355 154.248H173.179C172.859 154.248 172.571 154.376 172.315 154.632C172.123 154.888 172.027 155.176 172.027 155.496V184.104C172.027 184.68 172.155 185.16 172.411 185.544C172.731 185.928 173.307 186.12 174.139 186.12ZM173.275 150.888H183.547C192.315 150.888 196.699 145.672 196.699 135.24C196.699 131.464 195.803 128.36 194.011 125.928C192.219 123.496 189.083 122.28 184.603 122.28H173.947C173.499 122.28 173.051 122.408 172.603 122.664C172.219 122.856 172.027 123.4 172.027 124.296V149.544C172.027 149.8 172.155 150.088 172.411 150.408C172.667 150.728 172.955 150.888 173.275 150.888ZM224.968 189C224.136 189 223.72 188.488 223.72 187.464C223.72 186.632 224.136 186.216 224.968 186.216C228.552 186.216 230.952 185.768 232.168 184.872C233.448 183.976 234.088 182.472 234.088 180.36V127.752C234.088 125.832 233.512 124.392 232.36 123.432C231.208 122.472 228.904 121.992 225.448 121.992C224.616 121.992 224.2 121.512 224.2 120.552C224.2 119.72 224.616 119.304 225.448 119.304C225.96 119.304 228.392 119.336 232.744 119.4C237.16 119.464 243.624 119.496 252.136 119.496C260.2 119.496 266.312 119.464 270.472 119.4C274.632 119.336 277 119.304 277.576 119.304C279.048 119.304 279.816 120.04 279.88 121.512C280.008 122.088 280.104 123.048 280.168 124.392C280.232 125.672 280.296 127.048 280.36 128.52C280.424 129.992 280.456 131.304 280.456 132.456C280.52 133.608 280.552 134.344 280.552 134.664C280.552 134.92 280.488 135.208 280.36 135.528C280.232 135.784 279.944 135.912 279.496 135.912C279.048 135.912 278.696 135.88 278.44 135.816C278.248 135.688 278.056 135.4 277.864 134.952C277.096 133.224 276.104 131.4 274.888 129.48C273.736 127.496 272.168 125.8 270.184 124.392C268.264 122.984 265.736 122.28 262.6 122.28H247.72C247.144 122.28 246.664 122.408 246.28 122.664C245.896 122.92 245.704 123.464 245.704 124.296V150.6C245.704 150.856 245.832 151.144 246.088 151.464C246.344 151.72 246.632 151.848 246.952 151.848H251.848C254.536 151.848 256.584 151.272 257.992 150.12C259.4 148.968 260.424 147.624 261.064 146.088C261.768 144.552 262.344 143.24 262.792 142.152C262.984 141.64 263.144 141.288 263.272 141.096C263.464 140.84 263.816 140.712 264.328 140.712C264.776 140.712 265.064 140.872 265.192 141.192C265.384 141.512 265.48 141.832 265.48 142.152C265.48 142.664 265.448 143.592 265.384 144.936C265.384 146.216 265.352 147.624 265.288 149.16C265.288 150.696 265.288 152.104 265.288 153.384C265.288 154.6 265.288 156.072 265.288 157.8C265.352 159.464 265.384 161 265.384 162.408C265.448 163.752 265.48 164.648 265.48 165.096C265.48 166.056 265.096 166.536 264.328 166.536C263.624 166.536 263.144 166.12 262.888 165.288C262.44 164.072 261.864 162.664 261.16 161.064C260.456 159.4 259.4 157.96 257.992 156.744C256.584 155.464 254.536 154.824 251.848 154.824H246.952C246.12 154.824 245.704 155.304 245.704 156.264V184.008C245.704 185.224 246.344 185.832 247.624 185.832H260.584C263.656 185.832 266.248 185.288 268.36 184.2C270.472 183.048 272.2 181.64 273.544 179.976C274.952 178.248 276.04 176.552 276.808 174.888C277.576 173.16 278.152 171.72 278.536 170.568C278.728 169.992 278.92 169.672 279.112 169.608C279.368 169.544 279.72 169.544 280.168 169.608C280.232 169.608 280.264 169.608 280.264 169.608C280.776 169.672 281.064 169.832 281.128 170.088C281.192 170.344 281.224 170.632 281.224 170.952C281.224 171.208 281.192 172.008 281.128 173.352C281.128 174.696 281.096 176.264 281.032 178.056C281.032 179.784 281 181.416 280.936 182.952C280.936 184.424 280.936 185.448 280.936 186.024C280.936 186.856 280.68 187.56 280.168 188.136C279.72 188.712 279.048 189 278.152 189C277.704 189 276.712 188.968 275.176 188.904C273.64 188.84 271.112 188.808 267.592 188.808C264.072 188.744 259.144 188.712 252.808 188.712C245 188.712 238.568 188.776 233.512 188.904C228.52 188.968 225.672 189 224.968 189ZM343.884 189.768C341.388 189.768 339.34 189.16 337.74 187.944C336.204 186.664 334.924 185 333.9 182.952C332.94 180.904 332.14 178.664 331.5 176.232C330.86 173.8 330.252 171.368 329.676 168.936C329.164 166.504 328.524 164.264 327.756 162.216C326.988 160.168 325.964 158.536 324.684 157.32C323.468 156.04 321.836 155.4 319.788 155.4H312.3C311.468 155.4 311.052 155.784 311.052 156.552V180.36C311.052 181.64 311.212 182.728 311.532 183.624C311.916 184.52 312.684 185.192 313.836 185.64C314.988 186.024 316.748 186.216 319.116 186.216C319.948 186.216 320.364 186.696 320.364 187.656C320.364 187.976 320.236 188.296 319.98 188.616C319.788 188.872 319.5 189 319.116 189C318.476 189 316.876 188.968 314.316 188.904C311.82 188.776 308.812 188.712 305.292 188.712C301.964 188.712 299.084 188.776 296.652 188.904C294.284 188.968 292.748 189 292.044 189C291.212 189 290.796 188.552 290.796 187.656C290.796 186.696 291.212 186.216 292.044 186.216C294.412 186.216 296.108 185.992 297.132 185.544C298.156 185.096 298.796 184.456 299.052 183.624C299.308 182.728 299.436 181.64 299.436 180.36V127.752C299.436 126.6 299.276 125.608 298.956 124.776C298.7 123.944 298.06 123.304 297.036 122.856C296.076 122.344 294.476 122.088 292.236 122.088C291.788 122.088 291.436 121.96 291.18 121.704C290.988 121.384 290.892 121.064 290.892 120.744C290.892 119.784 291.34 119.304 292.236 119.304C292.684 119.304 294.124 119.368 296.556 119.496C299.052 119.56 301.964 119.592 305.292 119.592C310.604 119.592 315.02 119.56 318.54 119.496C322.06 119.368 324.972 119.304 327.276 119.304C331.18 119.304 334.732 119.912 337.932 121.128C341.196 122.28 343.82 124.136 345.804 126.696C347.788 129.256 348.78 132.616 348.78 136.776C348.78 139.528 348.236 141.864 347.148 143.784C346.06 145.704 344.684 147.304 343.02 148.584C341.356 149.8 339.564 150.792 337.644 151.56C335.788 152.328 334.028 152.936 332.364 153.384C331.724 153.576 331.372 153.832 331.308 154.152C331.308 154.472 331.436 154.696 331.692 154.824C334.06 155.592 335.948 156.84 337.356 158.568C338.828 160.232 339.98 162.152 340.812 164.328C341.644 166.44 342.316 168.616 342.828 170.856C343.404 173.096 343.948 175.176 344.46 177.096C344.972 178.952 345.612 180.456 346.38 181.608C347.148 182.76 348.204 183.336 349.548 183.336C350.124 183.336 350.7 183.208 351.276 182.952C351.852 182.632 352.46 182.12 353.1 181.416C353.42 181.032 353.708 180.776 353.964 180.648C354.22 180.52 354.54 180.616 354.924 180.936C355.244 181.192 355.372 181.48 355.308 181.8C355.308 182.12 355.212 182.504 355.02 182.952C354.38 184.36 353.068 185.864 351.084 187.464C349.164 189 346.764 189.768 343.884 189.768ZM312.3 152.232H321.324C326.06 152.232 329.676 150.952 332.172 148.392C334.668 145.832 335.916 141.96 335.916 136.776C335.916 132.488 334.86 129 332.748 126.312C330.7 123.624 327.564 122.28 323.34 122.28H313.068C312.556 122.28 312.076 122.408 311.628 122.664C311.244 122.856 311.052 123.4 311.052 124.296V150.888C311.052 151.144 311.18 151.432 311.436 151.752C311.692 152.072 311.98 152.232 312.3 152.232ZM395.569 190.152C389.425 190.152 383.953 188.808 379.153 186.12C374.353 183.432 370.577 179.4 367.825 174.024C365.073 168.584 363.697 161.832 363.697 153.768C363.697 148.2 364.625 143.24 366.481 138.888C368.337 134.472 370.833 130.728 373.969 127.656C377.105 124.584 380.593 122.248 384.433 120.648C388.337 118.984 392.337 118.152 396.433 118.152C399.249 118.152 401.905 118.568 404.401 119.4C406.897 120.168 408.593 120.808 409.489 121.32C410.193 121.768 410.801 121.992 411.313 121.992C411.889 121.928 412.401 121.8 412.849 121.608C413.169 121.48 413.777 121.192 414.673 120.744C415.569 120.296 416.177 120.04 416.497 119.976C417.073 119.784 417.713 119.848 418.417 120.168C419.185 120.424 419.569 120.936 419.569 121.704V139.176C419.569 139.816 419.121 140.232 418.225 140.424C417.393 140.552 416.849 140.328 416.593 139.752C415.121 136.744 413.457 133.864 411.601 131.112C409.745 128.296 407.601 125.992 405.169 124.2C402.737 122.408 399.825 121.512 396.433 121.512C394.065 121.512 391.729 122.088 389.425 123.24C387.185 124.328 385.137 126.152 383.281 128.712C381.425 131.208 379.921 134.536 378.769 138.696C377.681 142.792 377.137 147.816 377.137 153.768C377.137 162.024 377.937 168.552 379.537 173.352C381.137 178.152 383.345 181.576 386.161 183.624C388.977 185.608 392.177 186.6 395.761 186.6C401.009 186.6 404.689 185.16 406.801 182.28C408.913 179.336 409.969 175.56 409.969 170.952V166.728C409.969 165.064 409.553 163.784 408.721 162.888C407.889 161.992 406.033 161.544 403.153 161.544C402.705 161.544 402.353 161.416 402.097 161.16C401.841 160.84 401.713 160.52 401.713 160.2C401.713 159.24 402.193 158.76 403.153 158.76C403.601 158.76 404.497 158.792 405.841 158.856C407.249 158.92 408.817 158.984 410.545 159.048C412.337 159.112 414.033 159.144 415.633 159.144C418.065 159.144 420.497 159.08 422.929 158.952C425.361 158.824 426.993 158.76 427.825 158.76C428.273 158.76 428.657 158.888 428.977 159.144C429.361 159.4 429.553 159.752 429.553 160.2C429.553 160.584 429.361 160.904 428.977 161.16C428.657 161.416 428.273 161.544 427.825 161.544C426.033 161.544 424.561 161.896 423.409 162.6C422.257 163.24 421.681 164.712 421.681 167.016C421.681 172.456 421.777 177 421.969 180.648C422.161 184.232 422.257 186.248 422.257 186.696C422.257 187.4 421.873 187.848 421.105 188.04C420.401 188.168 419.889 188.04 419.569 187.656C419.313 187.336 418.865 186.792 418.225 186.024C417.649 185.192 417.073 184.424 416.497 183.72C415.985 182.952 415.665 182.536 415.537 182.472C414.705 181.64 413.937 181.608 413.233 182.376C411.569 184.36 409.265 186.152 406.321 187.752C403.377 189.352 399.793 190.152 395.569 190.152ZM2.2552 308C1.4232 308 1.0072 307.488 1.0072 306.464C1.0072 305.632 1.4232 305.216 2.2552 305.216C4.9432 305.216 7.1192 304.256 8.7832 302.336C10.4472 300.352 11.2792 297.024 11.2792 292.352V247.616C11.2792 245.312 10.7352 243.648 9.6472 242.624C8.6232 241.536 6.7992 240.992 4.1752 240.992C3.3432 240.992 2.9272 240.544 2.9272 239.648C2.9272 238.752 3.3432 238.304 4.1752 238.304C4.7512 238.304 6.7352 238.336 10.1272 238.4C13.5192 238.464 17.5512 238.496 22.2232 238.496C24.3992 238.496 25.7752 239.328 26.3512 240.992C26.4792 241.376 26.9272 242.656 27.6952 244.832C28.4632 247.008 29.3912 249.696 30.4792 252.896C31.6312 256.032 32.8152 259.36 34.0312 262.88C35.3112 266.336 36.4952 269.632 37.5832 272.768C38.7352 275.904 39.6952 278.528 40.4632 280.64C41.2312 282.688 41.6472 283.84 41.7112 284.096C42.4152 286.08 43.2472 285.888 44.2072 283.52C44.3352 283.136 44.7512 281.952 45.4552 279.968C46.2232 277.92 47.1192 275.392 48.1432 272.384C49.2312 269.312 50.3512 266.08 51.5032 262.688C52.6552 259.296 53.7432 256.096 54.7672 253.088C55.8552 250.016 56.7512 247.424 57.4552 245.312C58.2232 243.136 58.6712 241.824 58.7992 241.376C59.3752 239.456 60.7832 238.496 63.0232 238.496C67.6952 238.496 71.5992 238.464 74.7352 238.4C77.8712 238.336 79.6632 238.304 80.1112 238.304C80.9432 238.304 81.3592 238.752 81.3592 239.648C81.3592 240.544 80.9432 240.992 80.1112 240.992C77.7432 240.992 76.0792 241.504 75.1192 242.528C74.2232 243.488 73.7752 244.896 73.7752 246.752V299.072C73.7752 301.12 74.1592 302.656 74.9272 303.68C75.6952 304.704 77.2312 305.216 79.5352 305.216C80.3672 305.216 80.7832 305.632 80.7832 306.464C80.7832 307.488 80.3672 308 79.5352 308C78.8952 308 77.6152 307.968 75.6952 307.904C73.8392 307.776 71.4392 307.712 68.4952 307.712C66.6392 307.712 64.6872 307.744 62.6392 307.808C60.6552 307.808 58.9272 307.84 57.4552 307.904C55.9832 307.968 55.0232 308 54.5752 308C53.6152 308 53.1352 307.488 53.1352 306.464C53.1352 305.632 53.6152 305.216 54.5752 305.216C57.5192 305.216 59.5352 304.768 60.6232 303.872C61.7112 302.912 62.2552 301.312 62.2552 299.072V245.024C62.2552 244.576 62.0952 244.352 61.7752 244.352C61.4552 244.352 61.2312 244.48 61.1032 244.736C61.0392 244.928 60.5912 246.144 59.7592 248.384C58.9912 250.624 57.9672 253.536 56.6872 257.12C55.4712 260.704 54.1272 264.64 52.6552 268.928C51.1832 273.152 49.7112 277.376 48.2392 281.6C46.7672 285.824 45.4232 289.696 44.2072 293.216C42.9912 296.736 41.9992 299.584 41.2312 301.76C40.5272 303.936 40.1752 305.024 40.1752 305.024C39.9832 305.536 39.7912 305.856 39.5992 305.984C39.4712 306.048 39.2472 306.08 38.9272 306.08C38.4152 306.08 38.0312 305.792 37.7752 305.216C37.7112 305.088 37.2632 303.968 36.4312 301.856C35.6632 299.744 34.6072 296.96 33.2632 293.504C31.9832 290.048 30.5752 286.272 29.0392 282.176C27.5032 278.08 25.9352 273.984 24.3352 269.888C22.7992 265.792 21.3592 262.048 20.0152 258.656C18.7352 255.2 17.6792 252.416 16.8472 250.304C16.0792 248.128 15.6632 247.008 15.5992 246.944C15.5352 246.752 15.3752 246.688 15.1192 246.752C14.9272 246.816 14.8312 246.976 14.8312 247.232V292.256C14.8312 297.12 15.7912 300.512 17.7112 302.432C19.6312 304.288 21.8712 305.216 24.4312 305.216C25.3912 305.216 25.8712 305.632 25.8712 306.464C25.8712 307.488 25.3912 308 24.4312 308C23.7912 308 22.4792 307.968 20.4952 307.904C18.5752 307.776 16.2072 307.712 13.3912 307.712C10.0632 307.712 7.5352 307.776 5.8072 307.904C4.1432 307.968 2.9592 308 2.2552 308ZM93.1402 308C92.3082 308 91.8922 307.488 91.8922 306.464C91.8922 305.632 92.3082 305.216 93.1402 305.216C96.7242 305.216 99.1242 304.768 100.34 303.872C101.62 302.976 102.26 301.472 102.26 299.36V246.752C102.26 244.832 101.684 243.392 100.532 242.432C99.3802 241.472 97.0762 240.992 93.6202 240.992C92.7882 240.992 92.3722 240.512 92.3722 239.552C92.3722 238.72 92.7882 238.304 93.6202 238.304C94.1322 238.304 96.5642 238.336 100.916 238.4C105.332 238.464 111.796 238.496 120.308 238.496C128.372 238.496 134.484 238.464 138.644 238.4C142.804 238.336 145.172 238.304 145.748 238.304C147.22 238.304 147.988 239.04 148.052 240.512C148.18 241.088 148.276 242.048 148.34 243.392C148.404 244.672 148.468 246.048 148.532 247.52C148.596 248.992 148.628 250.304 148.628 251.456C148.692 252.608 148.724 253.344 148.724 253.664C148.724 253.92 148.66 254.208 148.532 254.528C148.404 254.784 148.116 254.912 147.668 254.912C147.22 254.912 146.868 254.88 146.612 254.816C146.42 254.688 146.228 254.4 146.036 253.952C145.268 252.224 144.276 250.4 143.06 248.48C141.908 246.496 140.34 244.8 138.356 243.392C136.436 241.984 133.908 241.28 130.772 241.28H115.892C115.316 241.28 114.836 241.408 114.452 241.664C114.068 241.92 113.876 242.464 113.876 243.296V269.6C113.876 269.856 114.004 270.144 114.26 270.464C114.516 270.72 114.804 270.848 115.124 270.848H120.02C122.708 270.848 124.756 270.272 126.164 269.12C127.572 267.968 128.596 266.624 129.236 265.088C129.94 263.552 130.516 262.24 130.964 261.152C131.156 260.64 131.316 260.288 131.444 260.096C131.636 259.84 131.988 259.712 132.5 259.712C132.948 259.712 133.236 259.872 133.364 260.192C133.556 260.512 133.652 260.832 133.652 261.152C133.652 261.664 133.62 262.592 133.556 263.936C133.556 265.216 133.524 266.624 133.46 268.16C133.46 269.696 133.46 271.104 133.46 272.384C133.46 273.6 133.46 275.072 133.46 276.8C133.524 278.464 133.556 280 133.556 281.408C133.62 282.752 133.652 283.648 133.652 284.096C133.652 285.056 133.268 285.536 132.5 285.536C131.796 285.536 131.316 285.12 131.06 284.288C130.612 283.072 130.036 281.664 129.332 280.064C128.628 278.4 127.572 276.96 126.164 275.744C124.756 274.464 122.708 273.824 120.02 273.824H115.124C114.292 273.824 113.876 274.304 113.876 275.264V303.008C113.876 304.224 114.516 304.832 115.796 304.832H128.756C131.828 304.832 134.42 304.288 136.532 303.2C138.644 302.048 140.372 300.64 141.716 298.976C143.124 297.248 144.212 295.552 144.98 293.888C145.748 292.16 146.324 290.72 146.708 289.568C146.9 288.992 147.092 288.672 147.284 288.608C147.54 288.544 147.892 288.544 148.34 288.608C148.404 288.608 148.436 288.608 148.436 288.608C148.948 288.672 149.236 288.832 149.3 289.088C149.364 289.344 149.396 289.632 149.396 289.952C149.396 290.208 149.364 291.008 149.3 292.352C149.3 293.696 149.268 295.264 149.204 297.056C149.204 298.784 149.172 300.416 149.108 301.952C149.108 303.424 149.108 304.448 149.108 305.024C149.108 305.856 148.852 306.56 148.34 307.136C147.892 307.712 147.22 308 146.324 308C145.876 308 144.884 307.968 143.348 307.904C141.812 307.84 139.284 307.808 135.764 307.808C132.244 307.744 127.316 307.712 120.98 307.712C113.172 307.712 106.74 307.776 101.684 307.904C96.6922 307.968 93.8442 308 93.1402 308ZM177.112 308C176.28 308 175.864 307.552 175.864 306.656C175.864 305.696 176.28 305.216 177.112 305.216C180.696 305.216 183.096 304.704 184.312 303.68C185.528 302.656 186.136 301.216 186.136 299.36V243.296C186.136 241.952 185.464 241.28 184.12 241.28H178.36C175.928 241.28 173.848 241.856 172.12 243.008C170.392 244.096 168.952 245.504 167.8 247.232C166.648 248.896 165.72 250.56 165.016 252.224C164.312 253.888 163.768 255.296 163.384 256.448C163.256 256.832 163.064 257.056 162.808 257.12C162.552 257.184 162.2 257.184 161.752 257.12C161.688 257.12 161.624 257.12 161.56 257.12C161.176 257.056 160.952 256.928 160.888 256.736C160.824 256.48 160.792 256.224 160.792 255.968C160.792 255.712 160.824 254.88 160.888 253.472C160.952 252.064 161.016 250.464 161.08 248.672C161.208 246.88 161.304 245.216 161.368 243.68C161.432 242.144 161.464 241.088 161.464 240.512C161.464 239.04 162.296 238.304 163.96 238.304C164.28 238.304 165.656 238.336 168.088 238.4C170.52 238.464 173.784 238.528 177.88 238.592C182.04 238.592 186.808 238.592 192.184 238.592C197.56 238.592 202.296 238.592 206.392 238.592C210.552 238.528 213.88 238.464 216.376 238.4C218.872 238.336 220.28 238.304 220.6 238.304C222.136 238.304 222.936 239.072 223 240.608C223 241.056 223.032 242.048 223.096 243.584C223.224 245.056 223.32 246.72 223.384 248.576C223.448 250.368 223.512 252 223.576 253.472C223.64 254.88 223.672 255.712 223.672 255.968C223.672 256.352 223.64 256.64 223.576 256.832C223.512 256.96 223.224 257.056 222.712 257.12C222.648 257.12 222.552 257.152 222.424 257.216C222.168 257.216 221.944 257.216 221.752 257.216C221.56 257.152 221.336 256.864 221.08 256.352C220.568 255.264 219.928 253.888 219.16 252.224C218.456 250.56 217.528 248.896 216.376 247.232C215.288 245.568 213.912 244.16 212.248 243.008C210.584 241.856 208.536 241.28 206.104 241.28H199.768C199.192 241.28 198.68 241.408 198.232 241.664C197.848 241.856 197.656 242.4 197.656 243.296V299.36C197.656 300.448 197.816 301.44 198.136 302.336C198.52 303.232 199.32 303.936 200.536 304.448C201.816 304.96 203.768 305.216 206.392 305.216C207.352 305.216 207.832 305.696 207.832 306.656C207.832 307.552 207.352 308 206.392 308C205.752 308 204.152 307.968 201.592 307.904C199.096 307.776 195.864 307.712 191.896 307.712C187.928 307.712 184.632 307.776 182.008 307.904C179.448 307.968 177.816 308 177.112 308ZM220.173 308C219.341 308 218.925 307.584 218.925 306.752C218.925 305.728 219.341 305.216 220.173 305.216C222.413 305.216 224.173 304.832 225.453 304.064C226.733 303.232 227.885 301.696 228.909 299.456C229.421 298.432 230.157 296.704 231.117 294.272C232.141 291.84 233.293 288.928 234.573 285.536C235.917 282.144 237.325 278.528 238.797 274.688C240.269 270.848 241.741 267.008 243.213 263.168C244.685 259.328 246.029 255.776 247.245 252.512C248.525 249.184 249.581 246.336 250.413 243.968C251.309 241.6 251.917 240 252.237 239.168C252.557 238.336 252.909 237.792 253.293 237.536C253.741 237.28 254.477 237.152 255.501 237.152C256.525 237.152 257.261 237.28 257.709 237.536C258.157 237.792 258.541 238.336 258.861 239.168C259.373 240.448 260.173 242.528 261.261 245.408C262.413 248.288 263.725 251.616 265.197 255.392C266.669 259.168 268.205 263.136 269.805 267.296C271.405 271.392 272.941 275.392 274.413 279.296C275.949 283.2 277.325 286.752 278.541 289.952C279.757 293.088 280.717 295.52 281.421 297.248C282.573 300.192 283.789 302.272 285.069 303.488C286.413 304.64 287.693 305.216 288.909 305.216C289.741 305.216 290.157 305.728 290.157 306.752C290.157 307.584 289.741 308 288.909 308C288.269 308 286.957 308 284.973 308C282.989 307.936 280.333 307.904 277.005 307.904C274.253 307.904 271.629 307.936 269.133 308C266.637 308 265.069 308 264.429 308C263.597 308 263.181 307.584 263.181 306.752C263.181 305.728 263.597 305.216 264.429 305.216C266.477 305.216 267.885 304.896 268.653 304.256C269.485 303.552 269.901 302.752 269.901 301.856C269.901 300.896 269.741 300.096 269.421 299.456C269.357 299.328 269.165 298.784 268.845 297.824C268.525 296.8 268.109 295.584 267.597 294.176C267.149 292.704 266.669 291.232 266.157 289.76C265.645 288.224 265.197 286.88 264.813 285.728C264.557 285.024 264.301 284.608 264.045 284.48C263.789 284.352 263.437 284.288 262.989 284.288H239.373C239.053 284.288 238.797 284.32 238.605 284.384C238.413 284.448 238.253 284.704 238.125 285.152C237.805 286.496 237.325 288.096 236.685 289.952C236.109 291.744 235.597 293.504 235.149 295.232C234.701 296.896 234.477 298.272 234.477 299.36C234.477 301.728 235.053 303.296 236.205 304.064C237.421 304.832 239.085 305.216 241.197 305.216C242.029 305.216 242.445 305.728 242.445 306.752C242.445 307.584 242.029 308 241.197 308C240.557 308 239.341 308 237.549 308C235.821 307.936 233.549 307.904 230.733 307.904C228.237 307.904 226.029 307.936 224.109 308C222.189 308 220.877 308 220.173 308ZM240.813 281.12H261.645C261.901 281.12 262.157 281.088 262.413 281.024C262.733 280.896 262.797 280.512 262.605 279.872C262.093 278.336 261.453 276.48 260.685 274.304C259.917 272.064 259.085 269.728 258.189 267.296C257.293 264.864 256.429 262.528 255.597 260.288C254.829 258.048 254.125 256.096 253.485 254.432C252.909 252.768 252.525 251.648 252.333 251.072C252.205 250.752 252.013 250.56 251.757 250.496C251.565 250.432 251.405 250.56 251.277 250.88C251.149 251.328 250.733 252.448 250.029 254.24C249.325 255.968 248.461 258.08 247.437 260.576C246.477 263.008 245.485 265.536 244.461 268.16C243.437 270.72 242.509 273.056 241.677 275.168C240.909 277.216 240.365 278.72 240.045 279.68C239.789 280.64 240.045 281.12 240.813 281.12ZM300.855 308C299.959 308 299.511 307.584 299.511 306.752C299.511 305.728 299.959 305.216 300.855 305.216C304.311 305.216 306.679 304.8 307.959 303.968C309.239 303.136 309.879 301.632 309.879 299.456V246.56C309.879 244.704 309.367 243.328 308.343 242.432C307.383 241.472 305.143 240.992 301.623 240.992C300.791 240.992 300.375 240.48 300.375 239.456C300.375 238.624 300.791 238.208 301.623 238.208C302.199 238.208 303.831 238.24 306.519 238.304C309.207 238.368 312.279 238.4 315.735 238.4C318.039 238.4 320.215 238.4 322.263 238.4C324.311 238.336 326.039 238.304 327.447 238.304C328.919 238.24 329.815 238.208 330.135 238.208C331.031 238.208 331.479 238.624 331.479 239.456C331.479 240.48 331.031 240.992 330.135 240.992C326.615 240.992 324.279 241.472 323.127 242.432C322.039 243.328 321.495 244.704 321.495 246.56V303.104C321.495 304.384 322.167 305.024 323.511 305.024H338.391C341.527 305.024 344.279 304.128 346.647 302.336C349.079 300.544 351.127 298.336 352.791 295.712C354.519 293.024 355.863 290.4 356.823 287.84C357.015 287.328 357.271 287.008 357.591 286.88C357.911 286.688 358.199 286.624 358.455 286.688C358.967 286.752 359.287 286.944 359.415 287.264C359.543 287.52 359.607 287.808 359.607 288.128C359.607 288.32 359.607 289.12 359.607 290.528C359.607 291.936 359.575 293.632 359.511 295.616C359.511 297.536 359.479 299.392 359.415 301.184C359.415 302.976 359.383 304.32 359.319 305.216C359.255 306.048 358.999 306.72 358.551 307.232C358.103 307.744 357.431 308 356.535 308C356.087 308 354.903 308 352.983 308C351.063 307.936 348.183 307.904 344.343 307.904C340.503 307.904 335.415 307.904 329.079 307.904C323.831 307.904 319.159 307.904 315.063 307.904C310.967 307.904 307.671 307.936 305.175 308C302.743 308 301.303 308 300.855 308ZM371.28 308C370.384 308 369.936 307.584 369.936 306.752C369.936 305.728 370.384 305.216 371.28 305.216C374.736 305.216 377.104 304.8 378.384 303.968C379.664 303.136 380.304 301.632 380.304 299.456V246.56C380.304 244.704 379.792 243.328 378.768 242.432C377.808 241.472 375.568 240.992 372.048 240.992C371.216 240.992 370.8 240.48 370.8 239.456C370.8 238.624 371.216 238.208 372.048 238.208C372.624 238.208 374.256 238.24 376.944 238.304C379.632 238.368 382.704 238.4 386.16 238.4C388.464 238.4 390.64 238.4 392.688 238.4C394.736 238.336 396.464 238.304 397.872 238.304C399.344 238.24 400.24 238.208 400.56 238.208C401.456 238.208 401.904 238.624 401.904 239.456C401.904 240.48 401.456 240.992 400.56 240.992C397.04 240.992 394.704 241.472 393.552 242.432C392.464 243.328 391.92 244.704 391.92 246.56V303.104C391.92 304.384 392.592 305.024 393.936 305.024H408.816C411.952 305.024 414.704 304.128 417.072 302.336C419.504 300.544 421.552 298.336 423.216 295.712C424.944 293.024 426.288 290.4 427.248 287.84C427.44 287.328 427.696 287.008 428.016 286.88C428.336 286.688 428.624 286.624 428.88 286.688C429.392 286.752 429.712 286.944 429.84 287.264C429.968 287.52 430.032 287.808 430.032 288.128C430.032 288.32 430.032 289.12 430.032 290.528C430.032 291.936 430 293.632 429.936 295.616C429.936 297.536 429.904 299.392 429.84 301.184C429.84 302.976 429.808 304.32 429.744 305.216C429.68 306.048 429.424 306.72 428.976 307.232C428.528 307.744 427.856 308 426.96 308C426.512 308 425.328 308 423.408 308C421.488 307.936 418.608 307.904 414.768 307.904C410.928 307.904 405.84 307.904 399.504 307.904C394.256 307.904 389.584 307.904 385.488 307.904C381.392 307.904 378.096 307.936 375.6 308C373.168 308 371.728 308 371.28 308ZM2.3692 427C1.4732 427 1.0252 426.552 1.0252 425.656C1.0252 424.76 1.4732 424.312 2.3692 424.312C5.6972 424.312 7.9372 423.832 9.0892 422.872C10.2412 421.848 10.8172 420.376 10.8172 418.456V365.752C10.8172 363.896 10.2732 362.488 9.1852 361.528C8.0972 360.504 5.7612 359.992 2.1772 359.992C1.3452 359.992 0.929199 359.544 0.929199 358.648C0.929199 357.752 1.3452 357.304 2.1772 357.304C2.7532 357.304 4.3852 357.368 7.0732 357.496C9.8252 357.56 13.0252 357.592 16.6732 357.592C20.8972 357.592 24.2252 357.56 26.6572 357.496C29.1532 357.368 31.0412 357.304 32.3212 357.304C36.3532 357.304 40.2892 357.944 44.1292 359.224C47.9692 360.44 51.4252 362.424 54.4972 365.176C57.5692 367.928 60.0012 371.544 61.7932 376.024C63.6492 380.44 64.5772 385.848 64.5772 392.248C64.5772 398.392 63.6492 403.672 61.7932 408.088C60.0012 412.504 57.5372 416.12 54.4012 418.936C51.3292 421.688 47.8732 423.736 44.0332 425.08C40.2572 426.36 36.3532 427 32.3212 427C31.0412 427 29.1532 426.968 26.6572 426.904C24.1612 426.84 20.7692 426.808 16.4812 426.808C12.8972 426.808 9.7932 426.84 7.1692 426.904C4.6092 426.968 3.0092 427 2.3692 427ZM24.4492 424.024H30.1132C32.7372 424.024 35.2972 423.544 37.7932 422.584C40.2892 421.56 42.5612 419.864 44.6092 417.496C46.6572 415.064 48.2892 411.8 49.5052 407.704C50.7212 403.608 51.3292 398.456 51.3292 392.248C51.3292 385.784 50.7852 380.472 49.6972 376.312C48.6732 372.152 47.2332 368.92 45.3772 366.616C43.5212 364.248 41.4092 362.616 39.0412 361.72C36.7372 360.76 34.3052 360.28 31.7452 360.28H24.4492C24.0012 360.28 23.5532 360.408 23.1052 360.664C22.7212 360.856 22.5292 361.4 22.5292 362.296V422.104C22.5292 423.512 23.1692 424.152 24.4492 424.024ZM82.0027 427C81.1707 427 80.7547 426.488 80.7547 425.464C80.7547 424.632 81.1707 424.216 82.0027 424.216C85.5867 424.216 87.9867 423.768 89.2027 422.872C90.4827 421.976 91.1227 420.472 91.1227 418.36V365.752C91.1227 363.832 90.5467 362.392 89.3947 361.432C88.2427 360.472 85.9387 359.992 82.4827 359.992C81.6507 359.992 81.2347 359.512 81.2347 358.552C81.2347 357.72 81.6507 357.304 82.4827 357.304C82.9947 357.304 85.4267 357.336 89.7787 357.4C94.1947 357.464 100.659 357.496 109.171 357.496C117.235 357.496 123.347 357.464 127.507 357.4C131.667 357.336 134.035 357.304 134.611 357.304C136.083 357.304 136.851 358.04 136.915 359.512C137.043 360.088 137.139 361.048 137.203 362.392C137.267 363.672 137.331 365.048 137.395 366.52C137.459 367.992 137.491 369.304 137.491 370.456C137.555 371.608 137.587 372.344 137.587 372.664C137.587 372.92 137.523 373.208 137.395 373.528C137.267 373.784 136.979 373.912 136.531 373.912C136.083 373.912 135.731 373.88 135.475 373.816C135.283 373.688 135.091 373.4 134.899 372.952C134.131 371.224 133.139 369.4 131.923 367.48C130.771 365.496 129.203 363.8 127.219 362.392C125.299 360.984 122.771 360.28 119.635 360.28H104.755C104.179 360.28 103.699 360.408 103.315 360.664C102.931 360.92 102.739 361.464 102.739 362.296V388.6C102.739 388.856 102.867 389.144 103.123 389.464C103.379 389.72 103.667 389.848 103.987 389.848H108.883C111.571 389.848 113.619 389.272 115.027 388.12C116.435 386.968 117.459 385.624 118.099 384.088C118.803 382.552 119.379 381.24 119.827 380.152C120.019 379.64 120.179 379.288 120.307 379.096C120.499 378.84 120.851 378.712 121.363 378.712C121.811 378.712 122.099 378.872 122.227 379.192C122.419 379.512 122.515 379.832 122.515 380.152C122.515 380.664 122.483 381.592 122.419 382.936C122.419 384.216 122.387 385.624 122.323 387.16C122.323 388.696 122.323 390.104 122.323 391.384C122.323 392.6 122.323 394.072 122.323 395.8C122.387 397.464 122.419 399 122.419 400.408C122.483 401.752 122.515 402.648 122.515 403.096C122.515 404.056 122.131 404.536 121.363 404.536C120.659 404.536 120.179 404.12 119.923 403.288C119.475 402.072 118.899 400.664 118.195 399.064C117.491 397.4 116.435 395.96 115.027 394.744C113.619 393.464 111.571 392.824 108.883 392.824H103.987C103.155 392.824 102.739 393.304 102.739 394.264V422.008C102.739 423.224 103.379 423.832 104.659 423.832H117.619C120.691 423.832 123.283 423.288 125.395 422.2C127.507 421.048 129.235 419.64 130.579 417.976C131.987 416.248 133.075 414.552 133.843 412.888C134.611 411.16 135.187 409.72 135.571 408.568C135.763 407.992 135.955 407.672 136.147 407.608C136.403 407.544 136.755 407.544 137.203 407.608C137.267 407.608 137.299 407.608 137.299 407.608C137.811 407.672 138.099 407.832 138.163 408.088C138.227 408.344 138.259 408.632 138.259 408.952C138.259 409.208 138.227 410.008 138.163 411.352C138.163 412.696 138.131 414.264 138.067 416.056C138.067 417.784 138.035 419.416 137.971 420.952C137.971 422.424 137.971 423.448 137.971 424.024C137.971 424.856 137.715 425.56 137.203 426.136C136.755 426.712 136.083 427 135.187 427C134.739 427 133.747 426.968 132.211 426.904C130.675 426.84 128.147 426.808 124.627 426.808C121.107 426.744 116.179 426.712 109.843 426.712C102.035 426.712 95.6027 426.776 90.5467 426.904C85.5547 426.968 82.7067 427 82.0027 427ZM185.079 428.152C182.135 428.152 179.351 427.768 176.727 427C174.103 426.296 171.831 425.528 169.911 424.696C168.055 423.864 166.743 423.288 165.975 422.968C165.335 422.648 164.663 422.52 163.959 422.584C163.255 422.648 162.647 422.968 162.135 423.544C162.071 423.608 162.039 423.64 162.039 423.64C161.975 423.64 161.815 423.768 161.559 424.024C161.367 424.216 160.695 424.856 159.543 425.944C158.903 426.584 158.295 426.776 157.719 426.52C157.143 426.2 156.855 425.688 156.855 424.984V406.264C156.855 405.496 157.271 405.048 158.103 404.92C158.999 404.792 159.543 405.016 159.735 405.592C160.951 409.176 162.807 412.376 165.303 415.192C167.799 418.008 170.775 420.216 174.231 421.816C177.751 423.352 181.527 424.12 185.559 424.12C188.887 424.12 191.575 423.448 193.623 422.104C195.735 420.76 197.303 419.064 198.327 417.016C199.351 414.904 199.863 412.824 199.863 410.776C199.863 408.024 199.095 405.816 197.559 404.152C196.023 402.424 194.007 401.048 191.511 400.024C189.015 398.936 186.231 398.008 183.159 397.24C180.151 396.472 177.143 395.64 174.135 394.744C171.127 393.848 168.375 392.696 165.879 391.288C163.383 389.816 161.367 387.896 159.831 385.528C158.295 383.096 157.527 380.024 157.527 376.312C157.527 371.896 158.583 368.216 160.695 365.272C162.871 362.264 165.751 359.992 169.335 358.456C172.919 356.92 176.791 356.152 180.951 356.152C183.063 356.152 185.207 356.408 187.383 356.92C189.559 357.368 191.575 357.944 193.431 358.648C195.287 359.288 196.695 359.896 197.655 360.472C199.191 361.304 200.375 361.304 201.207 360.472C201.847 359.832 202.327 359.416 202.647 359.224C203.031 358.968 203.223 358.84 203.223 358.84C203.735 358.328 204.279 358.232 204.855 358.552C205.431 358.808 205.719 359.352 205.719 360.184V376.6C205.719 377.432 205.303 377.944 204.471 378.136C203.703 378.328 203.159 378.008 202.839 377.176C201.431 374.04 199.639 371.128 197.463 368.44C195.351 365.752 192.887 363.576 190.071 361.912C187.319 360.248 184.279 359.416 180.951 359.416C178.199 359.416 175.767 360.024 173.655 361.24C171.543 362.392 169.879 363.928 168.663 365.848C167.447 367.768 166.839 369.912 166.839 372.28C166.839 374.968 167.607 377.112 169.143 378.712C170.743 380.312 172.823 381.592 175.383 382.552C177.943 383.512 180.759 384.344 183.831 385.048C186.967 385.752 190.071 386.552 193.143 387.448C196.215 388.28 199.031 389.432 201.591 390.904C204.151 392.376 206.199 394.36 207.735 396.856C209.335 399.288 210.135 402.488 210.135 406.456C210.135 411 209.047 414.904 206.871 418.168C204.695 421.432 201.719 423.928 197.943 425.656C194.167 427.32 189.879 428.152 185.079 428.152ZM227.854 427C227.022 427 226.606 426.488 226.606 425.464C226.606 424.632 227.022 424.216 227.854 424.216C231.182 424.216 233.582 423.864 235.054 423.16C236.526 422.456 237.262 420.952 237.262 418.648V365.464C237.262 363.352 236.558 361.912 235.15 361.144C233.806 360.376 231.374 359.992 227.854 359.992C227.022 359.992 226.606 359.544 226.606 358.648C226.606 357.752 227.022 357.304 227.854 357.304C228.942 357.304 230.35 357.336 232.078 357.4C233.87 357.464 235.758 357.528 237.742 357.592C239.726 357.592 241.55 357.592 243.214 357.592C244.814 357.592 246.606 357.592 248.59 357.592C250.638 357.528 252.558 357.464 254.35 357.4C256.206 357.336 257.646 357.304 258.67 357.304C259.63 357.304 260.11 357.752 260.11 358.648C260.11 359.544 259.63 359.992 258.67 359.992C255.278 359.992 252.846 360.376 251.374 361.144C249.966 361.912 249.262 363.352 249.262 365.464V418.648C249.262 420.952 250.03 422.456 251.566 423.16C253.102 423.864 255.47 424.216 258.67 424.216C259.63 424.216 260.11 424.632 260.11 425.464C260.11 426.488 259.63 427 258.67 427C257.646 427 256.206 426.968 254.35 426.904C252.558 426.84 250.638 426.776 248.59 426.712C246.606 426.648 244.814 426.616 243.214 426.616C241.55 426.616 239.726 426.648 237.742 426.712C235.758 426.776 233.87 426.84 232.078 426.904C230.35 426.968 228.942 427 227.854 427ZM309.581 428.152C303.437 428.152 297.965 426.808 293.165 424.12C288.365 421.432 284.589 417.4 281.837 412.024C279.085 406.584 277.709 399.832 277.709 391.768C277.709 386.2 278.637 381.24 280.493 376.888C282.349 372.472 284.845 368.728 287.981 365.656C291.117 362.584 294.605 360.248 298.445 358.648C302.349 356.984 306.349 356.152 310.445 356.152C313.261 356.152 315.917 356.568 318.413 357.4C320.909 358.168 322.605 358.808 323.501 359.32C324.205 359.768 324.813 359.992 325.325 359.992C325.901 359.928 326.413 359.8 326.861 359.608C327.181 359.48 327.789 359.192 328.685 358.744C329.581 358.296 330.189 358.04 330.509 357.976C331.085 357.784 331.725 357.848 332.429 358.168C333.197 358.424 333.581 358.936 333.581 359.704V377.176C333.581 377.816 333.133 378.232 332.237 378.424C331.405 378.552 330.861 378.328 330.605 377.752C329.133 374.744 327.469 371.864 325.613 369.112C323.757 366.296 321.613 363.992 319.181 362.2C316.749 360.408 313.837 359.512 310.445 359.512C308.077 359.512 305.741 360.088 303.437 361.24C301.197 362.328 299.149 364.152 297.293 366.712C295.437 369.208 293.933 372.536 292.781 376.696C291.693 380.792 291.149 385.816 291.149 391.768C291.149 400.024 291.949 406.552 293.549 411.352C295.149 416.152 297.357 419.576 300.173 421.624C302.989 423.608 306.189 424.6 309.773 424.6C315.021 424.6 318.701 423.16 320.813 420.28C322.925 417.336 323.981 413.56 323.981 408.952V404.728C323.981 403.064 323.565 401.784 322.733 400.888C321.901 399.992 320.045 399.544 317.165 399.544C316.717 399.544 316.365 399.416 316.109 399.16C315.853 398.84 315.725 398.52 315.725 398.2C315.725 397.24 316.205 396.76 317.165 396.76C317.613 396.76 318.509 396.792 319.853 396.856C321.261 396.92 322.829 396.984 324.557 397.048C326.349 397.112 328.045 397.144 329.645 397.144C332.077 397.144 334.509 397.08 336.941 396.952C339.373 396.824 341.005 396.76 341.837 396.76C342.285 396.76 342.669 396.888 342.989 397.144C343.373 397.4 343.565 397.752 343.565 398.2C343.565 398.584 343.373 398.904 342.989 399.16C342.669 399.416 342.285 399.544 341.837 399.544C340.045 399.544 338.573 399.896 337.421 400.6C336.269 401.24 335.693 402.712 335.693 405.016C335.693 410.456 335.789 415 335.981 418.648C336.173 422.232 336.269 424.248 336.269 424.696C336.269 425.4 335.885 425.848 335.117 426.04C334.413 426.168 333.901 426.04 333.581 425.656C333.325 425.336 332.877 424.792 332.237 424.024C331.661 423.192 331.085 422.424 330.509 421.72C329.997 420.952 329.677 420.536 329.549 420.472C328.717 419.64 327.949 419.608 327.245 420.376C325.581 422.36 323.277 424.152 320.333 425.752C317.389 427.352 313.805 428.152 309.581 428.152ZM415.799 427.288C415.543 427.288 415.319 427.288 415.127 427.288C414.935 427.288 414.743 427.288 414.551 427.288C413.335 427.352 412.407 427.32 411.767 427.192C411.127 427.064 410.551 426.52 410.039 425.56C409.271 424.216 408.087 422.232 406.487 419.608C404.887 416.92 402.999 413.848 400.823 410.392C398.647 406.872 396.343 403.192 393.911 399.352C391.543 395.512 389.175 391.736 386.807 388.024C384.503 384.312 382.359 380.92 380.375 377.848C378.391 374.712 376.727 372.12 375.383 370.072C374.039 367.96 373.207 366.648 372.887 366.136C372.823 366.008 372.663 365.976 372.407 366.04C372.215 366.04 372.119 366.2 372.119 366.52V411.256C372.119 416.12 373.047 419.512 374.903 421.432C376.823 423.288 379.063 424.216 381.623 424.216C381.943 424.216 382.231 424.344 382.487 424.6C382.807 424.792 382.967 425.112 382.967 425.56C382.967 426.008 382.807 426.36 382.487 426.616C382.231 426.872 381.943 427 381.623 427C380.983 427 379.671 426.968 377.687 426.904C375.703 426.776 373.303 426.712 370.487 426.712C367.159 426.712 364.631 426.776 362.903 426.904C361.239 426.968 360.055 427 359.351 427C358.519 427 358.103 426.52 358.103 425.56C358.103 424.664 358.519 424.216 359.351 424.216C362.039 424.216 364.215 423.256 365.879 421.336C367.607 419.416 368.471 416.088 368.471 411.352V366.616C368.471 364.312 367.959 362.648 366.935 361.624C365.911 360.536 364.087 359.992 361.463 359.992C360.631 359.992 360.215 359.512 360.215 358.552C360.215 357.72 360.631 357.304 361.463 357.304C361.975 357.304 363.671 357.336 366.551 357.4C369.495 357.464 373.335 357.496 378.071 357.496C379.159 357.496 379.959 357.656 380.471 357.976C380.983 358.296 381.463 358.84 381.911 359.608C382.167 360.056 382.935 361.272 384.215 363.256C385.495 365.24 387.095 367.736 389.015 370.744C390.935 373.688 393.015 376.888 395.255 380.344C397.495 383.8 399.735 387.256 401.975 390.712C404.215 394.168 406.263 397.368 408.119 400.312C410.039 403.256 411.607 405.688 412.823 407.608C414.103 409.464 414.839 410.552 415.031 410.872C415.415 411.448 415.767 411.64 416.087 411.448C416.471 411.256 416.663 410.904 416.663 410.392V373.048C416.663 368.376 415.767 365.048 413.975 363.064C412.247 361.016 409.847 359.992 406.775 359.992C405.943 359.992 405.527 359.512 405.527 358.552C405.527 357.72 405.943 357.304 406.775 357.304C407.479 357.304 408.855 357.368 410.903 357.496C412.951 357.56 415.383 357.592 418.199 357.592C420.951 357.592 423.319 357.56 425.303 357.496C427.287 357.368 428.599 357.304 429.239 357.304C430.199 357.304 430.679 357.72 430.679 358.552C430.679 359.512 430.199 359.992 429.239 359.992C426.807 359.992 424.695 360.984 422.903 362.968C421.175 364.888 420.311 368.248 420.311 373.048V409.528C420.311 412.92 420.439 415.8 420.695 418.168C420.951 420.472 421.143 422.648 421.271 424.696C421.335 425.4 421.079 426.008 420.503 426.52C419.991 426.968 418.423 427.224 415.799 427.288Z" fill="black"/>
</svg>
